<svg width="43" height="44" viewBox="0 0 43 44" fill="none" xmlns="http://www.w3.org/2000/svg">
<g clip-path="url(#clip0_22_578)">
<path d="M10.6917 17.235L10.0602 17.1687C9.21714 17.0789 8.37257 17.0036 7.53199 16.8948C6.69141 16.7861 5.85331 16.6584 5.01922 16.5127C3.85618 16.3097 2.70213 16.0637 1.60148 15.6218C1.2381 15.4751 0.88569 15.306 0.578209 15.0586C0.29269 14.8291 0.0755566 14.5597 0.017155 14.1776C-0.0186459 13.9848 -0.00566517 13.7861 0.0549209 13.5996C0.115507 13.4131 0.221775 13.2447 0.364068 13.1096C0.687522 12.7859 1.08585 12.5789 1.49965 12.4008C2.32726 12.0441 3.19679 11.8176 4.07282 11.6291C5.20182 11.3849 6.34254 11.1984 7.49055 11.0704C8.62215 10.9457 9.75474 10.8349 10.8873 10.7212C11.1179 10.6972 11.349 10.6788 11.5936 10.6568C11.6065 10.6191 11.6147 10.5799 11.6181 10.5401C11.5986 9.95049 11.5946 9.35936 11.5507 8.77173C11.4899 7.96003 11.3788 7.15286 11.2183 6.35486C10.8883 4.7087 10.3952 3.12089 9.61796 1.62837C9.52562 1.45178 9.4183 1.28467 9.32146 1.10908C9.08137 0.660128 9.30499 0.138841 9.78469 0.0231108C10.0957 -0.0517148 10.4121 0.0729964 10.5933 0.380281C10.8244 0.773864 11.0516 1.17193 11.2462 1.58447C12.0269 3.24012 12.5261 4.98156 12.8256 6.78536C13.0841 8.38647 13.1768 10.01 13.1021 11.6301C13.0435 13.0167 12.871 14.3961 12.5865 15.7545C12.5785 15.7944 12.5765 15.8353 12.567 15.9091C18.5176 16.2867 24.4862 16.2867 30.4369 15.9091C30.3969 15.6861 30.3645 15.4921 30.3271 15.2985C29.9592 13.4039 29.8135 11.4728 29.8928 9.54443C29.9996 6.95047 30.5073 4.43783 31.54 2.0454C31.7896 1.46525 32.0666 0.898074 32.414 0.36731C32.6037 0.0769866 32.9002 -0.0487207 33.2047 0.0211166C33.6979 0.134852 33.919 0.662124 33.6689 1.12255C33.4867 1.45777 33.295 1.789 33.1313 2.13369C32.5298 3.40024 32.1185 4.73015 31.8335 6.10045C31.6213 7.12526 31.4835 8.16405 31.4212 9.20871C31.3578 10.2544 31.3643 11.3031 31.4407 12.3479C31.5226 13.4413 31.6738 14.5285 31.8934 15.6028C31.9029 15.6527 31.9214 15.6981 31.9433 15.7704C32.0017 15.7704 32.0661 15.7754 32.1295 15.7704C32.7505 15.7136 33.3719 15.6642 33.9914 15.5948C34.7261 15.5125 35.4609 15.4227 36.1927 15.318C37.5903 15.1184 38.988 14.893 40.3387 14.47C40.6302 14.3787 40.9102 14.2485 41.1937 14.1317C41.2732 14.0922 41.35 14.0477 41.4239 13.9986C41.332 13.9427 41.2686 13.8988 41.2007 13.8634C40.7789 13.6429 40.3272 13.5007 39.8715 13.3715C38.8472 13.0807 37.8019 12.8846 36.7497 12.7275C36.0105 12.6168 35.2682 12.525 34.527 12.4282C34.3389 12.4069 34.1664 12.3135 34.0459 12.1676C33.9254 12.0216 33.8663 11.8347 33.8811 11.646C33.9105 11.2599 34.2205 10.9606 34.6133 10.9791C34.9702 10.9985 35.3258 11.037 35.6785 11.0943C36.6719 11.249 37.6662 11.3976 38.654 11.5822C39.7023 11.7777 40.7315 12.0391 41.7059 12.4831C42.0323 12.628 42.3352 12.821 42.6044 13.0558C43.1434 13.5316 43.0766 14.3527 42.7187 14.7723C42.4876 15.0436 42.1985 15.2362 41.8881 15.3988C41.318 15.6981 40.7076 15.8911 40.0911 16.0573C38.9929 16.3526 37.8698 16.5506 36.7437 16.7202C35.2962 16.9382 33.8431 17.0988 32.3856 17.222C32.3538 17.2284 32.3225 17.2374 32.2922 17.249C32.3277 17.3922 32.3586 17.5348 32.3991 17.6745C32.8568 19.2455 33.4275 20.7814 34.1067 22.2703C34.881 23.9824 35.4281 25.7884 35.7339 27.6423C35.9836 29.1264 36.0927 30.6307 36.0599 32.1353C36.0259 33.5642 35.8851 34.9885 35.6386 36.3964C35.2143 38.8362 34.512 41.1947 33.592 43.4909C33.5142 43.6844 33.3984 43.837 33.2087 43.9278C33.0773 43.993 32.9291 44.0163 32.7841 43.9946C32.639 43.9729 32.5041 43.9073 32.3976 43.8066C32.1714 43.5981 32.1026 43.2938 32.2184 42.9825C32.3946 42.5081 32.5817 42.0347 32.7535 41.5613C33.4022 39.7733 33.8906 37.9311 34.213 36.0567C34.3697 35.1393 34.496 34.217 34.534 33.2861C34.5629 32.5808 34.5709 31.8744 34.5869 31.1681C34.5869 31.1032 34.5784 31.0384 34.5729 30.9605C34.5145 30.9522 34.4557 30.9477 34.3967 30.9471C31.6274 31.0967 28.9399 31.622 26.3882 32.7329C25.6434 33.0572 24.9336 33.4617 24.2044 33.8234C24.1045 33.8733 24.0826 33.9561 24.0681 34.0424C23.9917 34.4843 23.9054 34.9248 23.854 35.3698C23.7644 36.1796 23.7299 36.9946 23.7506 37.8091C23.7685 38.8644 23.8466 39.9178 23.9847 40.9642C24.0611 41.5319 24.1445 42.0991 24.2278 42.6658C24.2862 43.0613 24.0352 43.434 23.6573 43.5038C23.248 43.5796 22.8716 43.3487 22.7967 42.9401C22.6969 42.4099 22.6131 41.8756 22.5532 41.3399C22.4598 40.5063 22.3695 39.6712 22.3205 38.8342C22.2594 37.8798 22.2634 36.9223 22.3325 35.9684C22.373 35.4486 22.4324 34.9298 22.4823 34.3801C21.8251 34.4644 21.1598 34.4623 20.5031 34.3741C20.5226 34.5342 20.5366 34.6704 20.556 34.8061C20.6983 35.7963 20.7217 36.7925 20.7128 37.7906C20.6973 39.4732 20.5026 41.1388 20.2401 42.798C20.2311 42.8553 20.2171 42.9122 20.2026 42.9686C20.1028 43.3547 19.7414 43.5786 19.3406 43.5028C19.1597 43.464 19.0002 43.3583 18.8941 43.2068C18.788 43.0553 18.7431 42.8694 18.7685 42.6862C18.8729 41.938 18.9857 41.1897 19.081 40.4415C19.1334 40.0299 19.1759 39.6154 19.1908 39.2008C19.2203 38.3618 19.2537 37.5223 19.2377 36.6837C19.2242 35.8359 19.1317 34.9912 18.9612 34.1606C18.9188 33.9566 18.8354 33.8329 18.6388 33.7391C18.1441 33.5036 17.6724 33.2198 17.1777 32.9843C15.5939 32.2291 13.9277 31.7243 12.2096 31.3841C11.0427 31.1567 9.8613 31.0119 8.67406 30.9506C8.60068 30.9461 8.52731 30.9506 8.43896 30.9506C8.42736 31.0084 8.41919 31.0669 8.4145 31.1257C8.38948 32.3558 8.45353 33.5862 8.60617 34.8071C8.95558 37.6096 9.71181 40.3033 10.7595 42.9202C10.8644 43.1831 10.8743 43.4385 10.7096 43.6814C10.6436 43.7803 10.5541 43.8613 10.4492 43.9174C10.3442 43.9735 10.2271 44.0028 10.1081 44.0028C9.98916 44.0028 9.87203 43.9735 9.76711 43.9174C9.66219 43.8613 9.57272 43.7803 9.50665 43.6814C9.45732 43.6047 9.41633 43.5229 9.38436 43.4375C8.52118 41.3038 7.86818 39.0912 7.43464 36.8309C7.22261 35.7549 7.08221 34.666 7.01436 33.5715C6.97392 32.8332 6.929 32.0929 6.93748 31.3546C6.97292 28.1411 7.61035 25.0563 8.95259 22.1261C9.63856 20.6294 10.2055 19.0811 10.6482 17.4954C10.6662 17.4311 10.6832 17.3667 10.6981 17.3024C10.6982 17.2798 10.696 17.2572 10.6917 17.235ZM33.6734 25.3037C33.6614 25.2449 33.6589 25.2204 33.6519 25.1975C33.4009 24.3884 33.0997 23.5957 32.75 22.824C32.0058 21.2006 31.3891 19.5217 30.9056 17.8027C30.8656 17.66 30.8247 17.5179 30.7778 17.3537C24.6019 17.7613 18.4059 17.7613 12.2301 17.3537C12.2031 17.4321 12.1801 17.4849 12.1667 17.5403C11.714 19.216 11.1298 20.8534 10.4196 22.4374C10.0258 23.3173 9.6559 24.2058 9.37138 25.1276C9.35491 25.1775 9.34592 25.2349 9.33194 25.2952C9.38436 25.3147 9.4213 25.3322 9.46023 25.3451C10.9273 25.7412 12.3933 26.1433 13.8623 26.5314C14.8252 26.7863 15.7891 27.0412 16.7574 27.2646C17.926 27.5258 19.1159 27.6809 20.3124 27.7281C21.6005 27.7932 22.8918 27.7512 24.1729 27.6024C25.1712 27.4811 26.1631 27.318 27.1364 27.0606C28.9988 26.5678 30.8577 26.063 32.7185 25.5641L33.6734 25.3037ZM34.492 29.4645C34.4118 28.5431 34.2661 27.6286 34.0558 26.7279C33.9674 26.7484 33.8955 26.7628 33.8252 26.7818C32.0452 27.2607 30.2612 27.7266 28.4842 28.2224C26.3847 28.8091 24.2518 29.1592 22.0725 29.2156C21.0663 29.2365 20.0598 29.1962 19.0586 29.0949C17.8252 28.9801 16.6033 28.7654 15.4047 28.4529C13.3582 27.9116 11.3151 27.3554 9.27005 26.8067C9.16772 26.7793 9.0634 26.7568 8.96207 26.7344C8.77439 27.2387 8.48687 29.1368 8.54577 29.4625C9.03295 29.5009 9.52013 29.5379 10.0078 29.5773C11.0426 29.6667 12.07 29.8274 13.0826 30.0581C15.2445 30.54 17.304 31.2938 19.2303 32.3982C19.8547 32.7533 20.5558 32.9524 21.2738 32.9783C22.1848 33.0214 23.0888 32.7993 23.8759 32.3388C24.6623 31.8892 25.4796 31.4961 26.3218 31.1626C28.6512 30.2421 31.11 29.6903 33.6095 29.5269L34.492 29.4645ZM1.57653 13.9756C1.79266 14.1612 2.02576 14.2465 2.25737 14.3323C2.96718 14.5967 3.70494 14.7663 4.44419 14.9164C5.5024 15.1316 6.56728 15.3017 7.6388 15.4267C8.62847 15.5415 9.61897 15.6505 10.6103 15.754C10.7564 15.7617 10.9029 15.7617 11.0491 15.754C11.2577 15.1683 11.6121 12.4771 11.5233 12.1339C11.3026 12.1494 11.0795 12.1578 10.8574 12.1838C9.67687 12.31 8.49536 12.4297 7.31635 12.5719C6.08904 12.7172 4.87145 12.9353 3.66999 13.2249C3.08897 13.366 2.51345 13.5282 1.96537 13.7736C1.83709 13.829 1.71729 13.9038 1.57653 13.9756Z" fill="#1A989D"/>
<path d="M20.7645 22.4336C20.7645 22.2595 20.753 22.0844 20.767 21.9118C20.7909 21.6096 20.9282 21.3721 21.2197 21.2534C21.3422 21.1991 21.4776 21.1806 21.6102 21.2002C21.7427 21.2198 21.867 21.2767 21.9685 21.3641C22.0531 21.432 22.121 21.5183 22.1672 21.6164C22.2133 21.7145 22.2363 21.8219 22.2345 21.9303C22.2425 22.2795 22.247 22.6287 22.2345 22.9739C22.218 23.4109 21.8991 23.7082 21.4803 23.6992C21.081 23.6912 20.7815 23.3804 20.767 22.9554C20.7615 22.7813 20.767 22.6062 20.767 22.4336H20.7645Z" fill="#1A989D"/>
</g>
<defs>
<clipPath id="clip0_22_578">
<rect width="43" height="44" fill="white"/>
</clipPath>
</defs>
</svg>
