<svg width="43" height="46" viewBox="0 0 43 46" fill="none" xmlns="http://www.w3.org/2000/svg">
<g clip-path="url(#clip0_21_559)">
<path d="M19.8937 46.0006C19.8659 45.8418 19.8472 45.6815 19.8378 45.5206C19.8378 43.9942 19.826 42.4666 19.8378 40.9402C19.8483 40.788 19.8187 40.6358 19.7521 40.4988C19.6855 40.3618 19.5843 40.245 19.4586 40.1603C18.7454 39.5999 18.0786 38.9855 17.3986 38.3855C17.256 38.2583 17.1383 38.1035 16.9683 37.9163L17.9561 37.0199C18.2604 37.3247 18.5422 37.6199 18.8429 37.9031C20.5689 39.5111 22.5374 40.6763 24.8244 41.2834C26.2865 41.6722 27.7023 41.5234 29.0954 41.005C32.1432 39.8843 34.6169 38.0171 36.3394 35.2139C37.2844 33.7167 37.7889 31.9794 37.7943 30.204C37.7943 27.2557 37.7943 24.3061 37.7943 21.3566C37.7943 18.9566 36.0945 16.3611 33.1097 15.7503C33.0811 15.7503 33.0514 15.7419 33.0229 15.7347C32.5676 15.6303 32.2027 15.7215 31.808 16.0335C30.2259 17.2863 28.3941 17.8419 26.3923 17.8514C24.954 17.8587 23.5157 17.8514 22.0773 17.8766C20.9921 17.8946 19.9829 18.2258 19.0295 18.7394C18.9535 18.7802 18.8845 18.8354 18.7704 18.9122L19.8604 19.8146L19.02 20.867L17.6067 19.7294C17.3178 20.0486 17.023 20.339 16.7674 20.663C15.7469 21.9455 15.1893 23.5406 15.1865 25.1857C15.1643 26.8657 15.1643 28.5421 15.1865 30.2148C15.215 32.1636 15.8046 33.9444 16.8685 35.5667C16.9493 35.6867 17.0325 35.8163 17.1133 35.9411C17.1272 35.9717 17.1383 36.0034 17.1466 36.0359L16.1041 36.8147C15.2554 35.7035 14.6872 34.4724 14.2605 33.1488C12.1814 33.1056 10.6599 32.2164 10.0786 30.1404C9.55797 28.2781 10.2819 26.8105 11.8118 25.6477C10.5565 22.9082 10.2855 20.021 10.7752 16.9983C9.99304 17.0583 9.48309 16.5999 8.96125 16.1475C7.26498 14.6751 5.56039 13.2099 3.8237 11.7075C3.54079 12.0339 3.26501 12.3531 2.96308 12.6999L1.94317 11.8395L3.67511 9.73958L2.03708 8.34761L1.02074 9.54759L-0.00866699 8.6812C1.53664 6.82484 3.06411 4.98646 4.62012 3.1133L5.64952 3.98448L4.61893 5.23966L6.25458 6.63643L7.93063 4.64567L8.95292 5.51085L8.12083 6.53924L11.2958 9.2848L10.4424 10.3L10.0049 9.98798L7.41475 13.0995C7.5264 13.1575 7.63366 13.2237 7.7357 13.2975C8.54996 13.9947 9.35946 14.6979 10.1725 15.3951C10.604 15.7647 10.8572 15.7443 11.2245 15.3099C11.7618 14.6699 12.2963 14.0299 12.8281 13.3899C13.1847 12.9651 13.1562 12.6939 12.7354 12.3207C12.3372 11.9607 11.9306 11.6199 11.4908 11.2408L12.355 10.2148L13.4117 11.1004C13.4879 11.0331 13.5606 10.9618 13.6293 10.8868C14.7452 9.54234 16.0561 8.37598 17.5175 7.42723C17.7279 7.2924 17.8767 7.07875 17.9312 6.83323C18.938 3.1529 21.3011 0.85254 25.0027 0.161352C29.647 -0.706233 33.9739 2.28172 35.0877 6.82244C35.1139 6.95179 35.1663 7.07428 35.2416 7.18227C35.3168 7.29026 35.4134 7.38141 35.5251 7.45002C37.035 8.43393 38.3811 9.65301 39.5132 11.062C39.5584 11.1208 39.6012 11.182 39.6808 11.2888L38.6633 12.0855C38.1414 11.53 37.6564 10.9696 37.1239 10.4596C36.5914 9.94958 36.0053 9.48999 35.3622 8.938C35.2874 11.0308 34.6787 12.8247 33.4687 14.4339C34.4339 14.6739 35.2945 15.0159 36.0612 15.5655C37.8514 16.8495 38.9462 18.581 39.0983 20.801C39.2172 22.469 39.153 24.1501 39.1708 25.8265C39.1708 26.0041 39.1708 26.1865 39.1708 26.4037C40.9408 24.1009 42.3459 18.1814 39.3765 13.1691C39.4561 13.1103 39.5346 13.0491 39.6202 12.9891C39.896 12.8163 40.1741 12.6495 40.4523 12.4827C42.2698 15.0543 43.5156 20.609 41.1798 25.7041C42.7346 26.9041 43.3955 28.4641 42.7583 30.384C42.1319 32.2692 40.6852 33.0972 38.75 33.1524C38.7096 33.2568 38.6704 33.3504 38.6383 33.4452C37.8431 35.8547 36.3964 37.8083 34.4945 39.4367C34.1711 39.7231 33.8288 39.9869 33.4698 40.2263C33.2048 40.3955 33.1477 40.6007 33.1489 40.8923C33.1584 42.5986 33.1489 44.3062 33.1489 46.0126H31.8152V41.3038C30.1142 42.1678 28.4226 42.8578 26.5409 42.8638C24.639 42.8734 22.932 42.1762 21.2049 41.3038C21.2049 41.6806 21.2049 42.0034 21.2049 42.3274L21.2262 46.003L19.8937 46.0006ZM17.6209 17.9786C17.6616 17.9656 17.7014 17.9496 17.7398 17.9306C19.3255 16.8759 21.0788 16.4415 22.9701 16.4679C24.0969 16.4835 25.2286 16.4679 26.3519 16.4679C26.989 16.4792 27.6252 16.4132 28.2467 16.2711C30.1673 15.815 31.8305 14.6091 32.8719 12.9174C33.9133 11.2257 34.248 9.18635 33.8027 7.24603C32.866 3.1409 28.9528 0.636551 24.8874 1.54853C22.5005 2.08493 20.7817 3.5297 19.719 5.75806C19.6641 5.89889 19.6184 6.04319 19.5823 6.19005C20.9707 5.56246 22.2985 5.08847 23.7344 4.87007C23.8129 5.33206 23.883 5.75085 23.9567 6.19005L23.2684 6.34245C21.1549 6.82244 19.2613 7.77402 17.527 9.06759C16.4075 9.8836 15.4002 10.846 14.5315 11.9295C14.4304 12.0579 14.3401 12.1695 14.3591 12.3651C14.396 12.7599 14.39 13.1595 14.4043 13.6191L16.3478 15.2799L15.5336 16.2843L17.6209 17.9786ZM13.804 26.4733C13.8214 26.4248 13.8353 26.3751 13.8456 26.3245C13.8456 25.9645 13.8456 25.6045 13.8456 25.2445C13.8646 22.8806 14.6829 20.8434 16.3003 19.133C16.3787 19.049 16.4489 18.959 16.538 18.8498L14.6504 17.3211L13.7672 18.3674L12.1541 17.0235C11.5514 20.4134 12.0186 23.5213 13.804 26.4733ZM6.43408 12.1587L8.99335 9.076L7.24475 7.58082L4.70332 10.636C4.73315 10.6784 4.76614 10.7186 4.80199 10.756C5.33334 11.212 5.8635 11.6667 6.43646 12.1587H6.43408ZM12.4513 26.9281C11.4218 27.5581 10.9951 28.9236 11.4682 30.0972C11.8878 31.1364 13.0326 31.872 13.8991 31.6752C13.8813 30.8088 13.8646 29.946 13.842 29.0845C13.8394 28.9962 13.8131 28.9104 13.766 28.8361C13.3345 28.1977 12.8935 27.5641 12.4536 26.9281H12.4513ZM39.09 31.7004C40.1598 31.7844 41.2166 30.9552 41.5435 29.7804C41.8145 28.7988 41.4353 27.4537 40.5105 26.9953C40.1313 27.5485 39.7628 28.1065 39.3729 28.6489C39.2376 28.8404 39.1679 29.0713 39.1744 29.3064C39.1566 30.0936 39.1209 30.8832 39.0924 31.7064L39.09 31.7004ZM5.36068 7.64202L3.74523 6.28004L2.91314 7.30243L4.51788 8.6632L5.36068 7.64202ZM13.6138 16.4595L14.4459 15.4347L13.5258 14.6607L12.6938 15.6855L13.6138 16.4595Z" fill="#1A989D"/>
<path d="M23.333 26.2004V27.5359C23.1844 27.5467 23.056 27.5623 22.9264 27.5635C21.9755 27.5635 21.0316 27.5515 20.0831 27.5635C19.0204 27.5815 18.1811 27.1855 17.6201 26.258C17.5428 26.1308 17.4561 26.0096 17.374 25.8848C17.3541 25.8459 17.3366 25.8058 17.3217 25.7648L18.3975 25.0232C18.511 25.1637 18.6159 25.3112 18.7113 25.4648C19.0109 26.0108 19.4602 26.21 20.0736 26.1848C21.0055 26.1524 21.9398 26.1752 22.8718 26.1776C23.0168 26.1788 23.1618 26.192 23.333 26.2004Z" fill="#1A989D"/>
<path d="M29.6034 27.5059V26.1763H30.0408C31.0036 26.1763 31.9677 26.1571 32.9305 26.1835C33.494 26.1991 33.9029 25.9999 34.1858 25.5115C34.2809 25.3471 34.4033 25.1983 34.5293 25.0183L35.5992 25.7515C35.0916 26.7835 34.3784 27.5143 33.1956 27.5515C32.0402 27.5875 30.8836 27.5515 29.7282 27.5515C29.6848 27.5418 29.6428 27.5264 29.6034 27.5059Z" fill="#1A989D"/>
<path d="M23.6527 35.0657L23.9344 33.8118C24.7749 33.8898 25.5986 34.0266 26.4307 34.0278C27.2628 34.029 28.0949 33.897 28.9888 33.8178C29.078 34.1994 29.173 34.6109 29.2776 35.0609C27.4288 35.5061 25.5023 35.5078 23.6527 35.0657Z" fill="#1A989D"/>
<path d="M20.3624 22.6088L20.1901 21.3404C20.6766 21.2274 21.1801 21.2087 21.6736 21.2852C21.6343 21.7328 21.5975 22.1576 21.5547 22.6052L20.3624 22.6088Z" fill="#1A989D"/>
<path d="M21.4631 30.4735L22.6423 30.2695C22.7612 30.6739 22.8801 31.0795 23.0096 31.5175C22.5674 31.7287 22.0991 31.7359 21.5951 31.8163C21.4358 31.3759 21.5452 30.9331 21.4631 30.4735Z" fill="#1A989D"/>
<path d="M17.4216 22.3616L18.7517 21.6416C18.9229 22.0976 19.0762 22.5044 19.2272 22.9184L18.1776 23.4716L17.4216 22.3616Z" fill="#1A989D"/>
<path d="M20.0866 31.761L18.6447 31.3614C18.8147 30.9175 18.9657 30.5215 19.1274 30.0955L20.2768 30.4135C20.215 30.849 20.1556 31.269 20.0866 31.761Z" fill="#1A989D"/>
<path d="M22.7315 22.8081L23.1 21.5637C23.6052 21.6549 24.0272 21.8733 24.4753 22.1385L23.8251 23.2881L22.7315 22.8081Z" fill="#1A989D"/>
<path d="M25.6866 23.0061C26.0135 23.4477 26.3 23.8329 26.6186 24.2649L25.4417 24.9213L24.7523 24.0069L25.6866 23.0061Z" fill="#1A989D"/>
<path d="M25.6141 30.1015L24.3969 31.0159L23.7324 29.8291L24.6584 29.1379L25.6141 30.1015Z" fill="#1A989D"/>
<path d="M17.33 30.638L16.2032 29.594L17.2611 28.7444L18.117 29.5376L17.33 30.638Z" fill="#1A989D"/>
<path d="M26.483 5.96626L25.2159 6.03226C25.1755 5.58467 25.1362 5.16348 25.097 4.68348L26.4878 4.59229L26.483 5.96626Z" fill="#1A989D"/>
</g>
<defs>
<clipPath id="clip0_21_559">
<rect width="43" height="46" fill="white"/>
</clipPath>
</defs>
</svg>
