<svg width="48" height="54" viewBox="0 0 48 54" fill="none" xmlns="http://www.w3.org/2000/svg">
<g clip-path="url(#clip0_18_410)">
<path d="M36.3552 33.6599C35.7836 35.1338 35.9248 36.4383 36.1064 37.692C36.1635 38.0919 36.8258 38.4544 37.2696 38.7424C38.8833 39.786 39.5826 41.3785 39.1119 43.0592C38.9266 43.8637 38.4766 44.5812 37.835 45.095C37.1934 45.6087 36.398 45.8884 35.5785 45.8884C34.7891 45.9276 34.008 45.7109 33.3498 45.27C32.6915 44.8292 32.1907 44.1873 31.9208 43.4386C31.3728 41.7275 31.8535 39.7318 33.4034 38.983C34.849 38.2884 34.9868 37.2888 34.8893 35.9843C34.8893 35.8725 34.8893 35.7573 34.8893 35.6455C34.8893 33.0263 34.8893 33.0263 31.951 32.4367C31.6267 32.9731 31.3349 33.5286 31.0769 34.1004C29.043 39.2913 27.0426 44.4958 25.0052 49.6867C24.7934 50.2357 24.5077 50.7541 24.2454 51.3064C23.3276 51.0319 23.257 50.3576 23.0452 49.8087C21.1356 44.8685 19.2428 39.9182 17.3299 34.9813C16.9937 34.1038 16.5432 33.2872 16.1129 32.335C15.417 32.5248 14.8858 32.6739 14.358 32.8128C13.6856 33.0127 13.1106 33.2635 13.1174 34.1681C13.1174 34.9508 13.1914 35.6082 14.0252 35.964C15.5246 36.6078 16.197 37.8208 16.3079 39.4235C16.4626 41.6157 16.7114 43.8046 16.8055 46.0002C16.8895 47.8808 15.6792 48.6296 13.8066 47.9282C13.9713 46.8744 15.101 47.508 15.6254 46.766C15.6862 46.3885 15.7166 46.0066 15.7162 45.6241C15.5986 43.5911 15.5178 41.5581 15.2724 39.5522C15.1833 38.7753 14.854 38.0463 14.3311 37.4684C13.9788 37.117 13.535 36.8733 13.051 36.7658C12.5669 36.6582 12.0626 36.691 11.5964 36.8606C11.1301 37.0301 10.7211 37.3293 10.4167 37.7235C10.1123 38.1178 9.92498 38.5909 9.87648 39.088C9.54029 41.6428 9.45958 44.2349 9.27131 46.8134L11.3927 47.7791C9.71175 48.7278 8.40398 48.1552 8.31321 46.5085C8.28614 45.4911 8.31645 44.4729 8.40399 43.459C8.47123 42.334 8.61235 41.2125 8.66278 40.0706C8.74347 38.2613 9.29821 36.7941 11.0363 35.9199C12.1222 35.3744 12.0819 35.2965 11.6718 33.7785C11.2521 33.8169 10.8354 33.8837 10.4245 33.9784C9.02931 34.3952 7.66095 34.9 6.25229 35.2694C4.7495 35.6624 4.01327 36.662 3.76112 38.1189C3.5157 39.5082 3.28705 40.8974 3.04835 42.2832C2.9643 42.7711 2.97104 43.3268 2.14064 43.4183C2.03834 43.0707 1.98627 42.7101 1.986 42.3476C2.21798 40.7856 2.50377 39.2337 2.76936 37.6785C3.10556 35.8081 4.18469 34.6933 5.99342 34.1986C7.56008 33.7717 9.09653 33.2397 10.6565 32.7891C11.0345 32.7079 11.3804 32.516 11.6507 32.2376C11.921 31.9591 12.1038 31.6064 12.1761 31.2237C12.4197 30.1732 12.9029 29.1944 13.5875 28.3651C14.2721 27.5358 15.1391 26.8787 16.1196 26.4461C16.3739 26.2915 16.6126 26.1121 16.8323 25.9108C16.5936 25.5211 16.3718 25.2094 16.2003 24.8705C15.4909 23.4711 14.7345 22.0887 14.1193 20.6487C13.8638 20.0489 13.7024 19.6322 12.9863 19.3848C10.9691 18.7071 10.2967 16.6741 11.5406 14.919C12.0897 14.1417 12.3568 13.1978 12.2971 12.2456C12.2769 10.4396 12.3374 8.63021 12.2802 6.82422C12.1592 3.00556 14.3378 0.311836 18.473 0.115312C22.1711 -0.0642703 25.8693 -0.0574936 29.5674 0.115312C33.5749 0.294894 36.0392 3.32746 35.6996 6.87166C35.6035 7.28339 35.4718 7.68587 35.3062 8.07452C35.1109 7.72657 34.9424 7.3641 34.8019 6.99025C34.7044 6.61076 34.6843 6.21094 34.6238 5.82128C34.1935 2.95813 32.6066 1.33172 29.7086 1.23346C25.9029 1.1047 22.0904 1.14198 18.278 1.23346C16.9993 1.23407 15.7703 1.73247 14.8475 2.62459C13.9247 3.51672 13.3796 4.73361 13.3258 6.02119C13.2552 8.44385 13.2351 10.8733 13.2822 13.2993C13.3057 14.4446 13.504 14.5463 15.0169 14.8546C15.1437 14.2805 15.2336 13.6988 15.2859 13.113C15.3329 11.6458 15.2858 10.1753 15.3295 8.70815C15.4001 6.65481 16.4289 5.59765 18.4427 5.48244C19.8514 5.40451 21.223 5.43501 22.4468 6.3668C22.8861 6.73287 23.4383 6.93314 24.0084 6.93314C24.5784 6.93314 25.1307 6.73287 25.57 6.3668C26.8476 5.41468 28.2832 5.38079 29.749 5.49599C31.551 5.64169 32.5932 6.71919 32.6806 8.57261C32.7512 10.0364 32.6805 11.5069 32.7243 12.9775C32.7243 13.5738 32.8487 14.1702 32.9125 14.7529C34.4893 14.6953 34.5565 14.6581 34.7179 13.4755C34.7918 12.9199 34.7481 12.3472 34.8221 11.7814C34.8996 11.4884 35.0125 11.2062 35.1583 10.9411H35.4945C35.5985 11.3865 35.666 11.8398 35.6962 12.2964C35.6508 13.2495 35.9361 14.1887 36.5031 14.9529C37.7302 16.6843 36.9805 18.6529 34.9902 19.4255C34.6237 19.5678 34.1329 19.8761 34.0488 20.2014C33.5176 22.2615 32.4251 24.0201 31.1442 25.8159C31.4351 26.0788 31.7491 26.3147 32.0821 26.5207C32.9853 26.9329 33.7808 27.5513 34.4057 28.327C35.0307 29.1027 35.4679 30.0144 35.6828 30.9899C35.9618 32.1893 36.6914 32.6264 37.6999 32.9178C39.1523 33.3278 40.5777 33.8395 42.0368 34.2325C43.9363 34.7475 44.9618 35.9843 45.2845 37.8987C45.9569 41.9647 46.6864 46.007 47.3487 50.0662C47.8429 53.1157 47.0865 53.9899 44.0305 53.9899C30.7531 53.9899 17.4768 53.9899 4.20156 53.9899C0.819439 53.9899 0.0696563 53.0819 0.684892 49.7884C0.886609 48.6973 1.13203 47.6199 1.35728 46.5729C2.18096 46.4983 2.3121 46.8507 2.22469 47.3827C2.01961 48.6059 1.76744 49.8223 1.60943 51.0489C1.45142 52.2754 1.79101 52.7058 2.98786 52.8379C3.32343 52.8633 3.66013 52.8701 3.99644 52.8582H44.0036C44.34 52.8696 44.6768 52.8605 45.0122 52.8311C46.2023 52.6854 46.5688 52.2653 46.3805 51.0251C45.8897 47.8503 45.345 44.6856 44.8205 41.5175C44.6289 40.3485 44.4507 39.1795 44.2355 38.0173C43.98 36.6247 43.2572 35.6929 41.8183 35.3066C39.9894 34.8492 38.2042 34.2291 36.3552 33.6599ZM31.7863 12.2456H31.756C31.756 11.1173 31.8233 9.98555 31.756 8.85723C31.6451 7.30198 30.9357 6.67853 29.3859 6.58704C28.1319 6.5125 26.9686 6.66159 25.876 7.42058C25.3684 7.77635 24.6287 7.84412 23.9798 7.93221C23.0318 8.06097 22.2989 7.52561 21.5088 7.06141C18.7319 5.42145 16.2541 6.78018 16.2305 9.92795C16.2305 11.6729 16.2642 13.4213 16.1936 15.1629C16.1701 15.6644 15.965 16.3861 15.6086 16.5996C14.8589 17.0435 14.8455 17.65 14.8589 18.3243C14.906 21.0722 16.1162 23.3729 17.9384 25.2568C19.9556 27.361 22.4737 28.513 25.523 27.8353C29.09 27.0425 31.2181 24.6367 32.4889 21.3975C32.9092 20.3268 32.9898 19.1104 33.1344 17.9482C33.1781 17.6093 33.0033 17.0265 32.768 16.9316C31.6821 16.4471 31.8031 15.5289 31.7997 14.6344C31.7795 13.8415 31.7829 13.0351 31.7829 12.2456H31.7863ZM19.5757 28.1708C19.2933 29.5566 19.0479 30.7459 18.7823 32.0504C20.2884 33.1923 21.7845 34.3681 23.3344 35.4591C23.5131 35.5674 23.7147 35.6315 23.9227 35.6463C24.1307 35.661 24.3393 35.6259 24.5312 35.5438C26.1719 34.4053 27.7486 33.172 29.2648 32.0403C29.053 31.1898 28.8883 30.6002 28.7605 30.0073C28.6327 29.4143 28.5588 28.8518 28.4243 28.0285C25.4154 29.5837 22.5712 28.8925 19.5724 28.1742L19.5757 28.1708ZM38.1908 42.0969C38.1843 41.7299 38.104 41.368 37.9546 41.0332C37.8052 40.6984 37.5898 40.3977 37.3216 40.1493C37.0535 39.9009 36.7381 39.71 36.3946 39.5882C36.051 39.4663 35.6864 39.416 35.323 39.4404C34.6441 39.4499 33.9954 39.7248 33.5137 40.2072C33.032 40.6895 32.755 41.3415 32.7411 42.0257C32.7363 42.3929 32.8056 42.7573 32.9448 43.0967C33.084 43.4362 33.2901 43.7435 33.5508 44.0002C33.8114 44.2569 34.1211 44.4575 34.461 44.5899C34.8009 44.7222 35.164 44.7836 35.5281 44.7703C35.877 44.772 36.2228 44.7043 36.5456 44.5709C36.8684 44.4374 37.1617 44.241 37.4089 43.9928C37.6561 43.7447 37.8521 43.4497 37.9857 43.1249C38.1194 42.8001 38.1879 42.4519 38.1874 42.1003L38.1908 42.0969ZM23.8521 48.5347C24.0807 48.4703 24.1513 48.4737 24.1883 48.4398C24.299 48.3189 24.396 48.186 24.4774 48.0434C25.486 46.1798 25.7751 44.2485 25.1498 42.1816C24.9481 41.5039 24.9212 40.8262 23.9866 40.8262C23.1595 40.8262 23.0519 41.4463 22.867 42.0562C22.1442 44.3603 22.6015 46.4746 23.8487 48.5279L23.8521 48.5347ZM13.5242 31.7726C14.8253 31.5252 16.1163 31.3118 17.3905 31.0136C17.5417 30.9581 17.6797 30.8712 17.7955 30.7586C17.9113 30.6459 18.0024 30.51 18.0629 30.3596C18.436 29.3025 18.5704 28.225 18.0023 27.1915C15.2858 27.5439 13.4738 29.3736 13.5209 31.7658L13.5242 31.7726ZM29.6616 27.2051C29.664 28.1245 29.7178 29.0431 29.8229 29.9564C29.8868 30.3393 30.2331 30.8882 30.5558 30.9729C31.867 31.3118 33.2218 31.5354 34.5901 31.8031C34.4321 29.2381 32.499 27.3949 29.6616 27.1983V27.2051ZM22.783 36.5196C21.0784 35.2795 19.8144 34.0258 18.1032 33.3177C18.3913 34.9455 18.9859 36.5028 19.8547 37.9055L22.783 36.5196ZM25.1767 36.5535L28.3403 37.9089L30.1053 33.443L29.7691 33.1754C28.1923 34.0191 26.8913 35.2287 25.1767 36.5434V36.5535ZM22.1509 38.346C23.3579 40.1926 24.743 40.1757 25.7987 38.3832C24.4035 37.1702 23.8286 37.1533 22.1442 38.3392L22.1509 38.346ZM13.8301 17.4026C13.857 16.2913 13.5175 15.7966 12.9258 15.7864C12.2534 15.7864 12.1323 16.2438 12.1155 16.7826C12.0852 17.6229 12.5627 18.3683 13.1073 18.1921C13.494 18.0735 13.7057 17.5687 13.8301 17.4026ZM35.8509 16.5488C35.7097 16.4031 35.4609 15.9355 35.1045 15.8271C34.5229 15.6542 34.0959 16.193 34.1362 17.0231C34.1362 17.5585 34.1363 18.2667 34.9297 18.2057C35.6828 18.1481 35.861 17.5246 35.8643 16.5522L35.8509 16.5488ZM20.2682 38.8915C20.4397 40.196 20.7188 41.1752 21.5055 42.0427C22.3157 40.3214 22.1207 39.7826 20.2817 38.8915H20.2682ZM27.6006 38.9965C25.8558 39.6742 25.5835 40.4264 26.5484 42.046C27.1401 41.0905 27.6948 40.1892 27.6141 38.9965H27.6006Z" fill="#1A989D"/>
</g>
<defs>
<clipPath id="clip0_18_410">
<rect width="47" height="54" fill="white" transform="translate(0.5)"/>
</clipPath>
</defs>
</svg>
