<svg width="61" height="47" viewBox="0 0 61 47" fill="none" xmlns="http://www.w3.org/2000/svg">
<g clip-path="url(#clip0_18_264)">
<path d="M15.313 35.6792C13.8642 34.9255 13.9328 35.0136 12.9246 35.8162C12.3463 36.2795 11.8943 36.8812 11.6102 37.5657C11.3262 38.2501 11.2192 38.995 11.2996 39.7317C11.2996 41.3663 11.2996 43.001 11.2996 44.6259C11.2996 44.8609 11.2996 45.0958 11.2996 45.3307C11.2996 45.7222 11.2995 46.1725 10.7905 46.2411C10.5746 46.2509 10.3616 46.1891 10.1845 46.0651C10.0074 45.9412 9.87629 45.7621 9.81168 45.5558C9.70787 45.2238 9.66814 44.875 9.69434 44.5281C9.69434 42.4529 9.69434 40.3875 9.69434 38.3221C9.7111 37.9932 9.65492 37.6646 9.52968 37.36C9.40445 37.0554 9.21327 36.7822 8.97 36.5602C7.30595 34.9451 7.64857 34.9255 5.32869 35.5813L3.76243 36.0316C3.19253 36.128 2.68171 36.44 2.33549 36.9028C1.98927 37.3657 1.83428 37.944 1.9027 38.5179C1.9027 40.4756 1.9027 42.492 1.9027 44.4889C1.91744 44.7595 1.91744 45.0307 1.9027 45.3013C1.85376 45.7908 1.41311 46.2802 1.00199 46.2117C0.590875 46.1432 0.316834 45.7516 0.307045 45.2818C0.307045 44.5085 0.307045 43.7254 0.307045 42.9423C0.307045 41.3468 0.355988 39.7415 0.307045 38.1459C0.287525 37.3418 0.534074 36.5537 1.00845 35.9041C1.48282 35.2545 2.15863 34.7797 2.93055 34.5535C3.9094 34.2892 4.88825 33.976 5.86711 33.6921C6.10258 33.671 6.3268 33.5822 6.51283 33.4363C6.69885 33.2904 6.83864 33.0937 6.91526 32.87C6.99189 32.6464 7.00214 32.4053 6.94466 32.176C6.88718 31.9467 6.76451 31.7389 6.59145 31.5778C6.38882 31.3408 6.17298 31.1154 5.94525 30.9024C4.79977 29.7076 4.14939 28.1232 4.12472 26.4682C4.12474 25.4925 3.93864 24.5257 3.5765 23.6197C3.03933 22.3472 3.01661 20.916 3.51317 19.6271C4.00974 18.3382 4.98686 17.2922 6.23896 16.709C7.13786 16.3448 8.09811 16.1555 9.06798 16.1511C11.3291 16.0728 13.5902 16.1511 15.8514 16.1511H17.1043C17.2218 15.0254 17.3783 13.9976 17.437 12.9698C17.4968 11.043 17.9466 9.14844 18.7593 7.40041C19.5719 5.65239 20.7305 4.08724 22.1649 2.79952C23.2037 1.91181 24.4127 1.24562 25.7181 0.841813C28.3454 -0.0641998 31.1752 -0.21009 33.8818 0.420913C35.5791 0.816063 37.17 1.57582 38.5442 2.64747C39.9185 3.71913 41.0432 5.07701 41.84 6.62684C42.8564 8.51963 43.4506 10.6101 43.5821 12.7544C43.7779 15.3093 44.0618 17.8543 44.3261 20.5363C44.5325 20.3942 44.7229 20.2301 44.8939 20.0469C45.3833 19.44 45.8727 18.8233 46.3328 18.2067C46.4998 18.018 46.6275 17.7979 46.7082 17.5592C46.7889 17.3204 46.8209 17.068 46.8026 16.8167C46.7426 15.7497 47.1005 14.7013 47.8003 13.8937C48.5002 13.086 49.487 12.5826 50.5517 12.4902C51.2311 12.3442 51.9343 12.3501 52.6112 12.5075C53.2881 12.6648 53.9218 12.9698 54.4671 13.4005C54.9648 13.7474 55.3685 14.2126 55.6419 14.7543C55.9153 15.2959 56.0499 15.897 56.0334 16.5035C56.0066 16.8854 56.0674 17.2683 56.2116 17.623C56.3559 17.9776 56.5795 18.2945 56.8652 18.5493C57.8039 19.4996 58.4596 20.6924 58.7587 21.9942C59.0578 23.296 58.9884 24.6554 58.5586 25.92C58.2809 26.8919 57.9542 27.8492 57.5798 28.7881C57.2306 29.7852 56.6345 30.6776 55.8472 31.382C55.5719 31.5557 55.3531 31.8054 55.2168 32.1009C55.0805 32.3964 55.0325 32.7251 55.0791 33.0472C55.1257 33.3693 55.2647 33.6709 55.4792 33.9157C55.6937 34.1605 55.9747 34.3378 56.2879 34.4263C57.25 34.8437 58.1849 35.321 59.0873 35.8554C59.6328 36.1668 60.081 36.6237 60.3818 37.1751C60.6826 37.7265 60.824 38.3507 60.7905 38.978C60.7905 40.9357 60.7905 42.9619 60.7905 44.949C60.7905 45.1447 60.7905 45.3405 60.7905 45.5363C60.7959 45.7339 60.7247 45.926 60.5914 46.072C60.4581 46.2181 60.2732 46.3068 60.0759 46.3194C59.8592 46.3384 59.6437 46.2708 59.4768 46.1314C59.3098 45.9919 59.2051 45.792 59.1852 45.5754C59.1656 45.305 59.1656 45.0334 59.1852 44.763C59.1852 43.001 59.1852 41.2489 59.1852 39.4967C59.2209 38.9662 59.0913 38.4376 58.8144 37.9837C58.5374 37.5297 58.1266 37.1726 57.6386 36.9615C57.0513 36.6581 56.4443 36.3938 55.8668 36.061C55.6438 35.9007 55.3685 35.8308 55.0961 35.8653C54.8237 35.8998 54.5745 36.0362 54.3985 36.2469C54.116 36.5147 53.8079 36.7541 53.4785 36.9615C51.8046 38.1166 50.4929 37.7837 49.0442 36.8049C48.8912 36.6816 48.7474 36.5475 48.6136 36.4036C47.762 35.6401 47.6347 35.6498 46.5971 36.4917C47.6738 38.048 47.6641 39.8393 47.6347 41.6404C47.6347 42.5312 47.6347 43.4317 47.6347 44.3323C47.6347 44.9 47.4781 45.4678 47.3998 45.9865C46.1371 46.2508 45.8727 46.104 45.8531 45.0664C45.8531 43.4317 45.8532 41.7873 45.9217 40.1722C46.0124 39.5294 45.9067 38.8741 45.6185 38.2925C45.3302 37.7108 44.8731 37.2298 44.3067 36.9126C42.6622 36.0512 40.9199 35.3758 39.1481 34.5829C38.042 36.0218 37.0923 37.5195 35.5164 38.4102C34.0285 39.2614 32.3357 39.688 30.6221 39.6436C28.8611 39.6894 27.1233 39.2345 25.6105 38.3319C24.1978 37.3286 23.0135 36.0376 22.1355 34.5437C21.2448 34.9255 20.3835 35.2877 19.5417 35.6596C18.6999 36.0316 18.044 36.3253 17.3099 36.6385C16.7049 36.8669 16.1887 37.2825 15.8366 37.8248C15.4844 38.3671 15.3146 39.0078 15.3521 39.6534C15.3521 41.3272 15.3521 43.0108 15.3521 44.6847C15.4019 44.9532 15.4019 45.2286 15.3521 45.4971C15.2319 45.8075 15.0158 46.0715 14.7353 46.2508C14.4515 46.4074 13.8936 45.9572 13.8153 45.5461C13.7858 45.2368 13.7858 44.9254 13.8153 44.6162C13.8153 43.1772 13.8153 41.7285 13.8153 40.2896C13.6681 39.4572 13.7276 38.6015 13.9888 37.7975C14.2499 36.9936 14.7047 36.2662 15.313 35.6792ZM20.1386 18.2948C20.1317 17.7017 20.2997 17.1198 20.6218 16.6219C20.944 16.1239 21.4059 15.7321 21.9496 15.4953C22.7481 14.9914 23.3837 14.2673 23.7799 13.4103C23.9072 13.1754 23.9955 12.8621 24.201 12.7349C24.4826 12.528 24.8341 12.4401 25.1799 12.4902C25.3756 12.5391 25.5713 12.96 25.5811 13.2243C25.5898 13.5644 25.5124 13.9011 25.356 14.2032C24.9076 15.2957 24.1087 16.2082 23.085 16.7971C22.6413 17.0143 22.2819 17.3719 22.0624 17.8144C21.8429 18.257 21.7756 18.7596 21.8712 19.2443C22.0524 21.6417 23.1707 23.8713 24.9839 25.4502C26.5354 26.7829 28.5132 27.5158 30.5585 27.5158C32.6039 27.5158 34.5817 26.7829 36.1332 25.4502C37.2119 24.5118 38.0541 23.3323 38.5916 22.0074C39.129 20.6825 39.3464 19.2496 39.2263 17.8249C39.2191 17.3182 39.0943 16.8201 38.8616 16.3699C38.6289 15.9197 38.2947 15.5298 37.8854 15.2309C35.6505 13.5163 33.0286 12.3768 30.2503 11.9126L26.8243 11.1981C26.188 11.061 25.8944 10.7478 25.9238 10.3171C25.9532 9.88642 26.2859 9.5634 27.0396 9.59277C27.7933 9.62213 28.3611 9.7396 28.9973 9.83748C32.7568 10.3867 36.3162 11.8785 39.3439 14.1738C39.7943 14.4894 40.1626 14.9082 40.4181 15.3952C40.6735 15.8823 40.8086 16.4234 40.8121 16.9733C40.8121 17.9032 40.8709 18.8527 40.8121 19.7826C40.7666 21.0339 40.4631 22.2623 39.9208 23.3908C39.3784 24.5193 38.6088 25.5237 37.6603 26.3409C37.1124 26.7405 36.6799 27.2778 36.4066 27.8984C36.1333 28.5189 36.0288 29.2007 36.1038 29.8746C36.1244 30.36 36.2851 30.8291 36.5665 31.2251C36.8479 31.6212 37.2381 31.9273 37.6897 32.1064C37.9735 32.2139 38.2867 32.2139 38.5705 32.1064C40.029 31.5387 41.4483 30.9122 42.9068 30.3445C43.1906 30.2664 43.4325 30.0802 43.5807 29.8259C43.7289 29.5715 43.7717 29.2693 43.6997 28.9839C43.5039 27.2513 43.3375 25.5089 43.1515 23.7666C42.8578 20.83 42.574 17.962 42.2412 15.0646C42.1034 13.4389 41.8614 11.8237 41.5169 10.229C41.2005 8.67501 40.5333 7.21377 39.5663 5.95675C38.5994 4.69973 37.3583 3.68013 35.9375 2.97571C33.5884 1.79501 30.9221 1.4004 28.3318 1.85003C26.7038 2.10417 25.1637 2.75648 23.8485 3.74901C21.5993 5.36679 20.0603 7.78937 19.5515 10.5129C19.0131 13.6844 18.7292 16.9048 18.3377 20.1056C18.1223 21.9263 17.8971 23.7372 17.7013 25.5579C17.574 26.7521 17.4861 27.9561 17.3882 29.16C17.3461 29.3938 17.3903 29.6349 17.5127 29.8384C17.6352 30.0419 17.8275 30.1939 18.0538 30.2662C19.2676 30.7947 20.4715 31.3429 21.6853 31.8813C22.0279 32.0236 22.3963 32.0927 22.7672 32.0843C23.138 32.0759 23.503 31.99 23.8387 31.8323C24.1815 31.7393 24.4804 31.5282 24.6828 31.2363C24.8852 30.9444 24.9781 30.5904 24.945 30.2368C24.9107 29.6924 24.9107 29.1465 24.945 28.6021C24.9767 28.2913 24.9231 27.9778 24.7903 27.695C24.6576 27.4123 24.4506 27.1709 24.1912 26.9968C21.4896 24.9608 20.3246 22.171 20.1386 18.2948ZM16.3702 18.0305C15.6737 17.9145 14.9708 17.8393 14.2655 17.8053C12.3078 17.8053 10.2915 18.0305 8.31424 17.9326C7.73358 17.9637 7.1685 18.1316 6.66505 18.4226C6.16161 18.7136 5.73392 19.1194 5.41711 19.6071C5.1003 20.0947 4.9032 20.6503 4.84189 21.2285C4.78058 21.8068 4.85686 22.3913 5.06438 22.9346C5.48759 23.9038 5.70418 24.9505 5.70054 26.0081C5.7232 26.7472 5.86551 27.4777 6.12162 28.1714C6.49413 29.1497 7.17046 29.9828 8.05137 30.5483C8.93227 31.1138 9.97132 31.3821 11.0159 31.3135C12.0988 31.233 13.1201 30.7791 13.9056 30.0293C14.6911 29.2795 15.192 28.2803 15.3227 27.2023C15.5012 25.5788 15.7922 23.9696 16.1938 22.3864C16.5187 20.9574 16.5786 19.481 16.3702 18.0305ZM56.8065 25.2348C57.0413 24.755 57.1755 24.2322 57.2008 23.6985C57.226 23.1649 57.1419 22.6318 56.9534 22.1319C56.6555 20.9663 55.9955 19.9253 55.0686 19.1584C54.1417 18.3916 52.9956 17.9384 51.7948 17.8641C50.758 17.7466 49.7094 17.934 48.7775 18.4034C47.8456 18.8729 47.0708 19.6039 46.5481 20.507C46.0445 21.2767 45.7353 22.157 45.6467 23.0725C45.558 23.988 45.6925 24.9114 46.0391 25.7634C46.2736 26.2959 46.4667 26.8457 46.6167 27.4079C46.8699 28.5649 47.5341 29.5909 48.4862 30.2955C49.069 30.7545 49.7512 31.0705 50.4781 31.2182C51.205 31.3659 51.9565 31.3412 52.6721 31.1461C53.3878 30.951 54.0479 30.5909 54.5993 30.0947C55.1506 29.5986 55.578 28.9801 55.8472 28.2889C55.9659 28.0435 56.007 27.7678 55.965 27.4985C55.923 27.2292 55.8 26.9791 55.6123 26.7814C54.1176 25.3011 52.2396 24.2672 50.1894 23.7959C49.8856 24.2369 49.5589 24.6617 49.2105 25.0684C49.0957 25.2302 48.9246 25.343 48.7307 25.3846C48.5368 25.4263 48.3344 25.3938 48.1633 25.2936C47.7326 25.0488 47.8011 24.6573 47.8402 24.2658C47.8482 24.187 47.8715 24.1105 47.9088 24.0406C48.2123 23.4533 48.5157 22.866 48.8877 22.2983C48.9237 22.2063 48.9782 22.1229 49.048 22.0531C49.1179 21.9833 49.2015 21.9288 49.2935 21.893C49.3854 21.8571 49.4838 21.8407 49.5824 21.8447C49.681 21.8488 49.7778 21.8732 49.8665 21.9165C51.9057 22.4465 53.8481 23.2955 55.6221 24.4322C55.9353 24.7063 56.3464 24.9412 56.8065 25.2153V25.2348ZM23.8093 33.7509C23.8316 33.8742 23.8645 33.9953 23.9073 34.113C24.5332 35.212 25.4226 36.138 26.4954 36.8077C27.5683 37.4774 28.7909 37.8697 30.0531 37.9493C31.3153 38.0289 32.5775 37.7934 33.726 37.2638C34.8745 36.7342 35.8734 35.9273 36.6324 34.9157C36.875 34.5498 37.0783 34.1593 37.2392 33.7509C37.1028 33.6515 36.9589 33.5631 36.8085 33.4866C34.7921 32.635 34.4986 32.1651 34.4692 29.9529C34.4692 29.5124 34.6159 29.023 34.332 28.6706C33.0947 28.9214 31.8426 29.0914 30.5832 29.1796C29.299 29.1248 28.02 28.9809 26.7557 28.7489C26.6676 29.3754 26.5501 29.9823 26.511 30.599C26.5369 31.1886 26.3732 31.7711 26.0438 32.2609C25.7143 32.7506 25.2366 33.1219 24.6806 33.3202C24.387 33.4278 24.1226 33.5943 23.8093 33.7509ZM40.8121 33.33C41.6637 33.7411 42.3097 33.9956 42.897 34.3088C43.5107 34.6951 44.228 34.8842 44.9524 34.851C45.6768 34.8177 46.3738 34.5637 46.9496 34.1228C47.1529 33.9916 47.3255 33.8181 47.4557 33.6141C47.586 33.4102 47.6706 33.1805 47.704 32.9408C47.7375 32.7011 47.719 32.4571 47.6495 32.2252C47.5801 31.9934 47.4615 31.7792 47.3018 31.5974C46.7731 31.0015 46.211 30.4362 45.6182 29.904C45.4719 30.3274 45.2362 30.7144 44.9271 31.0387C44.618 31.363 44.2428 31.6169 43.8268 31.7834C42.8774 32.263 41.9574 32.7524 40.8121 33.33ZM15.4499 30.873C15.1338 31.1256 14.8362 31.4004 14.5592 31.6953C14.4262 31.8377 14.3311 32.0112 14.2825 32.2C14.2339 32.3887 14.2336 32.5866 14.2813 32.7756C14.329 32.9645 14.4233 33.1385 14.5556 33.2815C14.688 33.4245 14.8541 33.5321 15.0388 33.5943C15.5381 33.7998 16.0863 33.9075 16.5855 34.113C17.9461 34.6612 18.9933 33.9956 20.1092 33.3202L15.4499 30.873ZM49.5728 33.0461C49.0051 34.299 49.0834 34.6123 50.0427 35.4247C50.3831 35.7514 50.8299 35.9441 51.3011 35.9675C51.7723 35.9909 52.2363 35.8433 52.6074 35.552C53.41 35.0332 53.5861 34.2501 53.2043 33.0461H49.5728ZM54.291 16.7188C54.2462 16.314 54.1189 15.9226 53.9172 15.5688C53.7155 15.215 53.4436 14.9062 53.1181 14.6613C52.7926 14.4165 52.4204 14.2409 52.0245 14.1453C51.6286 14.0496 51.2174 14.036 50.816 14.1053C49.3184 14.4087 48.4571 15.3974 48.7116 16.6895C50.5138 16.0009 52.506 15.9974 54.3106 16.6797L54.291 16.7188ZM12.5623 32.9874C11.2393 32.7621 9.89057 32.7325 8.55896 32.8993C8.67642 34.3773 9.78252 34.857 10.5167 35.6694C12.1611 34.3088 12.3764 34.0249 12.5819 32.9482L12.5623 32.9874Z" fill="#1A989D"/>
<path d="M4.04651 42.5704V40.2408C4.04651 40.0058 3.98784 39.7122 4.1053 39.5555C4.22277 39.3989 4.61435 38.978 4.87864 38.978C5.14293 38.978 5.42678 39.3206 5.60298 39.5751C5.77917 39.8296 5.66153 40.0352 5.66153 40.2603V44.9295C5.67642 45.1217 5.67642 45.3148 5.66153 45.507C5.6572 45.7041 5.57979 45.8925 5.44406 46.0355C5.30832 46.1784 5.12399 46.2657 4.92739 46.2803C4.82048 46.2856 4.71361 46.269 4.61337 46.2315C4.51313 46.1939 4.42182 46.1362 4.34476 46.0619C4.2677 45.9876 4.20671 45.8983 4.16553 45.7994C4.12434 45.7006 4.10383 45.5944 4.1053 45.4874C4.05636 44.5085 4.1053 43.5297 4.1053 42.5508L4.04651 42.5704Z" fill="#1A989D"/>
<path d="M56.9438 43.2654C56.9438 43.9212 56.9438 44.577 56.9438 45.2231C56.9438 45.8691 56.562 46.2998 56.1117 46.2802C55.6614 46.2606 55.3482 45.8887 55.3384 45.3014C55.3384 43.8722 55.3384 42.4333 55.3384 41.0042C55.3318 40.8967 55.3467 40.7889 55.3821 40.6872C55.4175 40.5855 55.4729 40.4918 55.5449 40.4117C55.6168 40.3315 55.7039 40.2665 55.8013 40.2203C55.8986 40.1742 56.0041 40.1478 56.1117 40.1428C56.5326 40.0743 56.9145 40.4952 56.9438 41.0531C56.9438 41.7873 56.9438 42.5214 56.9438 43.2654Z" fill="#1A989D"/>
<path d="M40.7633 43.6472C40.7633 44.2639 40.7633 44.8903 40.7633 45.5168C40.7633 45.9475 40.5773 46.2705 40.0781 46.2901C39.9701 46.3023 39.8607 46.2921 39.7567 46.2602C39.6528 46.2283 39.5564 46.1754 39.4738 46.1047C39.3911 46.034 39.324 45.9471 39.2764 45.8493C39.2288 45.7515 39.2017 45.645 39.197 45.5364C39.197 44.2149 39.197 42.8935 39.197 41.5622C39.197 41.0728 39.5789 40.9358 40.0193 40.9456C40.1174 40.9336 40.2167 40.9436 40.3104 40.9749C40.4041 41.0061 40.4897 41.0578 40.5609 41.1263C40.6321 41.1947 40.6872 41.278 40.7222 41.3704C40.7572 41.4627 40.7713 41.5617 40.7633 41.6601C40.7633 42.3159 40.7633 42.9816 40.7633 43.6472Z" fill="#1A989D"/>
<path d="M21.8027 43.6177C21.8027 44.1952 21.8027 44.7825 21.8027 45.36C21.8027 45.9376 21.4015 46.3389 20.9708 46.2802C20.8631 46.2728 20.758 46.244 20.6615 46.1955C20.5651 46.147 20.4793 46.0798 20.4092 45.9978C20.339 45.9158 20.2859 45.8206 20.2529 45.7178C20.2199 45.615 20.2077 45.5067 20.217 45.3992C20.217 44.1658 20.217 42.9227 20.217 41.6893C20.217 41.1314 20.5206 40.9356 21.0394 40.9454C21.5582 40.9552 21.7833 41.1705 21.7931 41.6404C21.7931 42.2962 21.7931 42.9521 21.7931 43.5981L21.8027 43.6177Z" fill="#1A989D"/>
<path d="M8.53944 20.8105C9.84131 21.0357 11.4075 21.3 12.9639 21.5936C13.3257 21.6559 13.6639 21.8149 13.9427 22.0537C14.042 22.1616 14.1189 22.2881 14.1693 22.4258C14.2197 22.5635 14.2424 22.7098 14.2362 22.8563C14.2362 23.2479 13.8742 23.4339 13.4729 23.3947C13.2021 23.3657 12.9337 23.3166 12.6702 23.2479C11.3975 22.8739 10.0809 22.6698 8.75476 22.641C8.40893 22.6128 8.06545 22.5604 7.72691 22.4844C7.61898 22.4876 7.51169 22.4679 7.41194 22.4265C7.31219 22.3852 7.22235 22.3231 7.14835 22.2445C7.07434 22.1659 7.01773 22.0724 6.9825 21.9704C6.94726 21.8683 6.93404 21.7599 6.94378 21.6523C6.94378 21.1727 7.34515 21.0259 7.71711 20.9084C7.98833 20.8551 8.26328 20.8224 8.53944 20.8105Z" fill="#1A989D"/>
</g>
<defs>
<clipPath id="clip0_18_264">
<rect width="60.4638" height="46.29" fill="white" transform="translate(0.268066)"/>
</clipPath>
</defs>
</svg>
