<svg width="42" height="49" viewBox="0 0 42 49" fill="none" xmlns="http://www.w3.org/2000/svg">
<g clip-path="url(#clip0_13_118)">
<path d="M5.85763 31.6392C4.41985 31.6392 3.09237 31.6693 1.7687 31.6392C0.627601 31.6015 0.308071 31.2624 0.129299 30.2298C0.129299 30.1658 0.129299 30.1055 0.129299 30.0414C-0.224441 27.1209 0.0950683 26.7591 3.03149 26.7554H39.714H41.593C42.2358 28.1572 41.9734 29.4724 41.8935 30.7536C41.8517 31.4244 41.2811 31.658 40.6535 31.6731C39.7672 31.6731 38.881 31.6731 37.9909 31.6957C37.5843 31.7126 37.186 31.8149 36.8223 31.996C36.4587 32.1771 36.1382 32.4328 35.882 32.7462C35.6259 33.0595 35.4399 33.4232 35.3366 33.8132C35.2333 34.2032 35.2149 34.6105 35.2827 35.0081C35.336 35.5082 35.4904 35.9925 35.7368 36.4321C35.9831 36.8718 36.3164 37.2577 36.7167 37.5668C37.021 37.7929 37.3405 37.9927 37.6334 38.2301C38.7288 39.1081 38.8163 39.6734 37.9453 40.7436C37.5117 41.2749 36.9792 41.7233 36.4961 42.217C35.6593 43.0724 34.8605 43.9655 33.9933 44.787C33.0424 45.6839 32.5289 45.6952 31.5285 44.851C30.8564 44.2753 30.2213 43.6587 29.6267 43.0046C28.4856 41.7686 27.2228 42.2509 25.9409 42.6617C24.6591 43.0724 24.4195 44.0409 24.4575 45.194C24.4766 45.9477 24.4918 46.7013 24.4575 47.455C24.3891 48.6533 24.1532 48.9284 23.0045 48.9623C21.8558 48.9963 20.5968 49.0189 19.3949 48.9623C17.9419 48.8907 17.63 48.5516 17.5995 47.1272C17.5691 45.8798 17.5995 44.625 17.5995 43.2646C16.9172 42.9142 16.212 42.6095 15.4885 42.3526C13.5867 41.8062 12.1907 42.6315 11.023 44.0672C9.75256 45.6273 9.15542 45.6499 7.68341 44.233C6.54231 43.1364 5.424 42.0323 4.32475 40.9018C3.32819 39.8731 3.34343 39.6319 4.3514 38.5654C4.78502 38.1095 5.24903 37.6799 5.69405 37.2352C7.17368 35.758 7.33726 34.944 6.52708 33.0448C6.3369 32.6378 6.14291 32.2459 5.85763 31.6392ZM31.966 43.0988L32.4718 42.8237C32.646 42.7609 32.8081 42.6692 32.9511 42.5524C33.8868 41.452 34.8073 40.3403 35.8533 39.0817C35.4957 38.7652 34.8187 38.1396 34.1074 37.5517C32.9967 36.6398 32.586 35.7693 33.1603 34.4353C33.5711 33.4555 33.845 32.4192 34.2025 31.4206C34.7845 29.7776 34.7921 29.7776 36.4847 29.7512C37.3067 29.7771 38.1294 29.7594 38.9495 29.6985C39.2994 29.6608 39.8319 29.3518 39.8928 29.0767C40.0487 28.3871 39.4553 28.2929 38.919 28.2891C37.3367 28.2891 35.7544 28.2891 34.1721 28.2891H30.106C29.7484 29.4837 29.5202 30.4559 29.1627 31.3829C28.8698 32.1366 28.5731 32.9581 28.0216 33.5121C25.7165 35.8447 23.0768 37.2804 19.5698 36.621C16.1465 35.9841 13.484 33.6816 12.6053 30.3052C12.438 29.6533 12.2249 29.0126 12.0233 28.2816C8.90815 28.2816 5.93752 28.259 2.97067 28.3155C2.67018 28.3155 2.38107 28.7828 2.08439 29.0315C2.38868 29.2764 2.67397 29.6947 3.00108 29.7286C3.94789 29.7952 4.89755 29.8128 5.84621 29.7814C6.8732 29.7814 7.45516 30.26 7.74804 31.2887C8.07934 32.497 8.48587 33.6838 8.96524 34.8423C9.12502 35.1479 9.17443 35.4985 9.10523 35.8358C9.03603 36.1731 8.8524 36.4767 8.58487 36.6963C7.75187 37.5367 6.97591 38.4298 6.00598 39.4849L9.60803 43.1214C10.3155 42.4016 10.9165 41.8628 11.4262 41.2372C12.5673 39.8618 13.3889 39.6583 15.0511 40.3667C15.6735 40.663 16.3265 40.8916 16.9985 41.0488C18.9004 41.3955 19.4367 41.9796 19.509 43.9052C19.547 44.885 19.5774 45.8685 19.6155 46.9199H22.7839C22.7839 45.7894 22.86 44.7908 22.7839 43.8147C22.6432 42.3413 22.9132 41.7271 24.3054 41.1995C25.4275 40.7737 26.5876 40.4459 27.7287 40.069C28.1148 39.914 28.5409 39.886 28.9442 39.9892C29.3476 40.0923 29.7069 40.3211 29.969 40.6418C30.6119 41.4445 31.2851 42.2773 31.9698 43.0988H31.966ZM14.3626 28.4022C13.929 32.0613 18.3527 35.351 21.4564 35.0533C24.8531 34.7292 27.9227 31.5676 27.5727 28.4022H14.3626Z" fill="#1A989D"/>
<path d="M18.4287 23.963L20.2773 24.0609C20.4125 23.8137 20.5111 23.5484 20.5702 23.2733C20.5968 21.1404 20.6387 19.0075 20.5968 16.8671C20.5664 15.3598 20.0909 14.0446 18.8433 13.0724C18.3244 12.7148 17.9226 12.2145 17.6873 11.6332C17.4521 11.052 17.3938 10.4151 17.5196 9.80144C17.6908 8.64455 17.9266 7.34446 16.7589 6.31193C16.1503 5.78059 16.3291 4.91013 16.9111 4.27328C17.0863 4.04392 17.3431 3.88932 17.6293 3.84101C17.9156 3.79271 18.2096 3.85429 18.4515 4.01324C18.6252 4.09775 18.779 4.21759 18.9028 4.36491C19.0266 4.51224 19.1176 4.68376 19.17 4.8683C19.2224 5.05283 19.235 5.24623 19.2069 5.4359C19.1788 5.62556 19.1106 5.80722 19.0069 5.96904C18.5814 6.87211 18.357 7.85528 18.3489 8.85185C18.2723 9.50905 18.3587 10.1748 18.6006 10.7915C18.8425 11.4081 19.2327 11.9569 19.7372 12.3903C21.0494 13.5208 21.639 14.8134 21.4564 16.5091C21.4871 16.7321 21.5512 16.9493 21.6466 17.1535C22.6926 16.8709 23.2632 16.2717 23.3164 15.2091C23.4306 13.031 23.5941 10.8528 23.6245 8.67093C23.6245 8.02654 23.2442 7.37465 23.0502 6.73026C22.8942 6.26675 22.5899 5.8183 22.5633 5.35103C22.5488 5.14744 22.579 4.94316 22.6518 4.75224C22.7247 4.56132 22.8383 4.38828 22.9851 4.24504C23.1318 4.1018 23.3082 3.99177 23.5019 3.92248C23.6957 3.8532 23.9023 3.82631 24.1076 3.84368C24.8987 3.95673 25.7013 4.97416 25.2943 5.65247C23.7729 8.19234 24.7656 10.9282 24.4689 13.566C24.4595 13.6285 24.4595 13.692 24.4689 13.7544C24.8037 15.827 24.0886 17.3758 22.24 18.4687C22.0265 18.6323 21.849 18.8373 21.7182 19.0712C21.5874 19.3051 21.5061 19.563 21.4793 19.8291C21.3728 21.1292 21.445 22.4443 21.445 23.9517C22.2818 24.0044 22.9665 24.0835 23.6169 24.0835C29.0029 24.0835 34.3889 24.0835 39.7711 24.0835C40.2795 24.0397 40.7915 24.0664 41.2925 24.1627C41.443 24.2418 41.5737 24.3532 41.6751 24.4888C41.7765 24.6244 41.8459 24.7808 41.8783 24.9465C41.9087 25.1161 41.5626 25.4854 41.323 25.5532C40.8897 25.6366 40.4472 25.6632 40.0069 25.6323H2.19091C1.74989 25.6775 1.30445 25.6534 0.87105 25.5607C0.719849 25.4862 0.586594 25.3803 0.480284 25.2502C0.373974 25.1202 0.297092 24.9691 0.254859 24.8071C0.213019 24.6563 0.578159 24.2682 0.813986 24.2154C1.31681 24.1351 1.8269 24.1086 2.33545 24.1363H15.2679H17.417C17.5164 23.5941 17.585 23.0469 17.6224 22.4971C17.6452 20.8051 17.5767 19.1056 17.6528 17.4173C17.7059 16.9159 17.6113 16.4099 17.3804 15.9605C17.1496 15.5112 16.7924 15.1376 16.3519 14.885C15.0245 14.0672 14.1953 13.0008 14.1877 11.3766C14.1877 10.8453 13.8567 10.314 13.6513 9.79017C13.5792 9.64829 13.5381 9.49294 13.5306 9.33426C13.5231 9.17557 13.5495 9.0171 13.608 8.86919C13.6665 8.72128 13.7558 8.58722 13.8701 8.47579C13.9844 8.36437 14.1211 8.27808 14.2713 8.22252C14.7823 8.05044 15.3403 8.07875 15.8308 8.30164C16.4432 8.59557 16.622 9.24375 16.3862 9.92582C16.3372 10.0417 16.2773 10.1527 16.2074 10.2574C15.0663 12.3112 15.0663 12.3112 16.641 13.9014C16.9529 14.2142 17.2572 14.5345 17.5881 14.8285C18.3489 15.5105 18.5619 16.3358 18.5162 17.3532C18.3641 19.4372 18.4287 21.5701 18.4287 23.963Z" fill="#1A989D"/>
<path d="M21.0114 12.1077C20.8555 11.6367 20.5664 11.1619 20.5588 10.6871C20.5284 8.8745 20.6006 7.0619 20.6196 5.24932C20.6196 4.19041 20.6919 3.1541 19.8209 2.2723C19.2617 1.70328 19.4405 0.987294 20.0415 0.437113C20.1571 0.306555 20.2982 0.200494 20.4563 0.125322C20.6143 0.05015 20.7861 0.00743816 20.9613 -0.000305445C21.1364 -0.00804905 21.3113 0.0193622 21.4755 0.0802874C21.6397 0.141213 21.7897 0.234386 21.9167 0.35422C22.5329 0.836571 22.8181 1.5563 22.297 2.16678C21.2739 3.41034 21.4793 4.85742 21.4298 6.25171C21.3613 8.16981 21.4108 10.0954 21.4108 12.0173L21.0114 12.1077Z" fill="#1A989D"/>
<path d="M27.0554 17.4739C26.9147 17.2139 26.6522 16.9576 26.6484 16.6938C26.6256 15.5633 26.675 14.4328 26.7055 13.3023C26.7359 12.1718 26.7473 11.0676 25.9447 10.0916C25.8242 9.9629 25.7337 9.80958 25.6794 9.64244C25.6251 9.4753 25.6084 9.2984 25.6305 9.1242C25.6526 8.94999 25.713 8.78272 25.8074 8.63411C25.9017 8.48549 26.0278 8.35915 26.1768 8.26399C26.303 8.14037 26.453 8.04317 26.6178 7.97814C26.7827 7.91311 26.9591 7.88158 27.1365 7.88545C27.314 7.88932 27.4888 7.92848 27.6506 8.00063C27.8125 8.07279 27.958 8.17644 28.0786 8.30543C28.2234 8.40622 28.3443 8.53699 28.433 8.68866C28.5217 8.84033 28.5761 9.00931 28.5924 9.18386C28.6086 9.35841 28.5864 9.53436 28.5273 9.69957C28.4681 9.86478 28.3734 10.0153 28.2498 10.1406C27.4548 11.0488 27.489 12.0889 27.489 13.1553C27.489 14.5647 27.489 15.9703 27.489 17.3797L27.0554 17.4739Z" fill="#1A989D"/>
</g>
<defs>
<clipPath id="clip0_13_118">
<rect width="42" height="49" fill="white"/>
</clipPath>
</defs>
</svg>
