<svg width="54" height="53" viewBox="0 0 54 53" fill="none" xmlns="http://www.w3.org/2000/svg">
<path d="M13.3287 4.42321C14.1475 2.28458 16.3317 0.760831 18.6256 0.75462C24.144 0.749444 29.6624 0.753585 35.1819 0.75255C36.0266 0.744268 36.8764 0.907823 37.6476 1.25667C39.6517 2.13655 41.0491 4.2255 41.0719 6.41796C41.0864 9.2222 41.0729 12.0264 41.0792 14.8296C43.3565 14.8307 45.6328 14.8307 47.9101 14.8296C48.613 14.8131 49.3356 14.8296 49.997 15.0988C51.5643 15.6702 52.6781 17.2705 52.6688 18.9392C52.675 21.701 52.6719 24.4618 52.6708 27.2236C52.6801 28.4098 52.1501 29.5868 51.2516 30.3632C50.5063 31.0205 49.5188 31.388 48.525 31.3901C46.0427 31.3973 43.5615 31.3911 41.0792 31.3921C41.0771 36.0773 41.0792 40.7624 41.0781 45.4464C41.0823 46.2063 41.0957 46.9774 40.8959 47.7176C40.4581 49.4991 39.1134 51.0187 37.4075 51.6864C36.6373 51.9959 35.8019 52.1066 34.9759 52.0963C29.5941 52.0942 24.2134 52.0984 18.8326 52.0942C17.4196 52.1098 16.0035 51.6108 14.9373 50.6792C13.9425 49.8262 13.2511 48.6264 13.0192 47.3356C12.9032 46.7207 12.9229 46.0934 12.9219 45.4713C9.88577 45.4692 6.84965 45.4754 3.81354 45.4682C2.51856 45.4951 1.34055 44.3637 1.33227 43.0666C1.32089 39.8204 1.33331 36.5752 1.3271 33.3289C1.32192 32.9542 1.33745 32.5712 1.47202 32.2161C1.80223 31.2493 2.77942 30.5485 3.80422 30.565C6.84344 30.564 9.88163 30.565 12.9208 30.564C12.9219 27.8043 12.9229 25.0435 12.9208 22.2838C9.36612 22.2828 5.81036 22.2848 2.25563 22.2828C1.77532 22.3314 1.30639 21.9277 1.33124 21.436C1.32503 17.6007 1.32917 13.7655 1.32917 9.93024C1.29708 9.53274 1.5745 9.13628 1.96889 9.0545C2.23389 9.0162 2.50303 9.03587 2.7701 9.03276C6.15403 9.0338 9.53692 9.0338 12.9208 9.03276C12.9778 7.49556 12.7211 5.88485 13.3287 4.42321ZM14.6589 5.71923C22.8863 5.72233 31.1137 5.72233 39.3401 5.71923C38.985 3.88183 37.2677 2.41915 35.3879 2.41087C29.796 2.40673 24.204 2.40673 18.6121 2.41087C16.7333 2.42122 15.0129 3.88183 14.6589 5.71923ZM14.5792 7.37755C14.5771 7.92929 14.5771 8.48103 14.5792 9.03276C15.9632 9.0369 17.3461 9.02862 18.7301 9.03587C19.1991 9.02241 19.5872 9.47063 19.5458 9.93024C19.5458 13.7655 19.55 17.6007 19.5438 21.436C19.5634 21.8853 19.1659 22.29 18.7167 22.2786C17.3379 22.291 15.958 22.2797 14.5792 22.2838C14.5771 25.0435 14.5781 27.8043 14.5792 30.564C15.9942 30.5682 17.4103 30.5588 18.8264 30.5682C19.8823 30.5909 20.8553 31.3797 21.1151 32.4004C21.2994 33.2637 21.1514 34.157 21.2124 35.0317C22.1813 35.4934 23.1358 35.9872 24.0943 36.4685C24.6409 36.7418 24.6492 37.6165 24.1047 37.8971C23.1451 38.397 22.1689 38.867 21.2031 39.3587C21.2031 39.7396 21.2021 40.1206 21.2042 40.5015C27.2764 40.5025 33.3486 40.5025 39.4208 40.5015C39.4219 37.4375 39.4239 34.3724 39.4198 31.3083C37.6114 30.9543 36.1642 29.2846 36.1166 27.4347C36.099 24.7765 36.1145 22.1182 36.1094 19.4599C36.0928 18.8108 36.128 18.1473 36.3661 17.5366C36.8443 16.2105 38.0441 15.193 39.4208 14.9073C39.4229 12.397 39.4219 9.88677 39.4208 7.37755C31.1406 7.37755 22.8594 7.37755 14.5792 7.37755ZM4.52262 10.6869C6.49356 12.2656 8.46864 13.8411 10.4375 15.4228C12.4095 13.8462 14.3814 12.2697 16.3524 10.6911C12.4084 10.6869 8.46553 10.6942 4.52262 10.6869ZM2.98542 11.5824C2.98335 14.5978 2.98438 17.6121 2.98542 20.6265C7.95313 20.6275 12.9219 20.6275 17.8896 20.6265C17.8906 17.6132 17.8917 14.5988 17.8896 11.5855C15.6837 13.3535 13.4736 15.1143 11.2677 16.8824C11.0224 17.0759 10.7698 17.3254 10.4323 17.3099C10.1011 17.3223 9.85368 17.0759 9.61248 16.8865C7.4045 15.1164 5.19547 13.3494 2.98542 11.5824ZM39.984 16.5004C38.7697 16.6029 37.7542 17.7188 37.7677 18.9382C37.7615 21.5613 37.7687 24.1843 37.7646 26.8074C37.7573 27.2722 37.7604 27.7536 37.9509 28.1873C38.3163 29.1055 39.2666 29.7442 40.2552 29.7338C43.0491 29.7348 45.8429 29.7452 48.6358 29.7286C49.8925 29.7048 50.9991 28.591 51.0104 27.3333C51.0198 24.5342 51.0156 21.7341 51.0125 18.9351C51.0291 17.6246 49.8511 16.4538 48.5395 16.4869C45.6877 16.4952 42.8348 16.4683 39.984 16.5004ZM2.98542 33.1126C2.98542 36.3971 2.98128 39.6817 2.98749 42.9662C2.96264 43.4579 3.4326 43.8637 3.91395 43.814C8.64047 43.8161 13.368 43.813 18.0946 43.815C18.3689 43.8119 18.6453 43.8326 18.9165 43.785C19.2839 43.7012 19.5562 43.342 19.5438 42.9673C19.5552 41.5801 19.5376 40.193 19.551 38.8059C19.5531 38.4933 19.7612 38.2097 20.0427 38.0844C20.6369 37.7822 21.2363 37.4882 21.8325 37.189C21.2331 36.8712 20.6172 36.5866 20.0158 36.2739C19.728 36.1394 19.5376 35.833 19.5489 35.5152C19.5376 34.6798 19.5593 33.8444 19.5407 33.0101C19.5386 32.5846 19.1504 32.212 18.725 32.2234C13.7521 32.2192 8.77815 32.2192 3.80422 32.2234C3.33737 32.2089 2.94505 32.653 2.98542 33.1126ZM21.2042 42.1588C21.1948 42.7437 21.2601 43.3575 21.0209 43.9103C20.6617 44.8336 19.7084 45.4765 18.7177 45.4682C17.3389 45.4754 15.959 45.4682 14.5792 45.4713C14.5802 46.0013 14.5533 46.5365 14.6516 47.0603C14.9767 48.9691 16.7882 50.468 18.7229 50.4359C24.2061 50.4431 29.6904 50.439 35.1736 50.439C36.1508 50.4514 37.1352 50.1316 37.8909 49.5053C38.8235 48.7517 39.4012 47.5778 39.4177 46.3781C39.427 44.9713 39.4198 43.5645 39.4208 42.1588C33.3486 42.1588 27.2764 42.1588 21.2042 42.1588Z" fill="#1A989D"/>
<path d="M47.7042 18.1389C48.2549 18.1389 48.8066 18.1389 49.3584 18.1389C49.3594 18.6917 49.3594 19.2434 49.3584 19.7962C48.8066 19.7962 48.2549 19.7962 47.7042 19.7962C47.7021 19.2434 47.7021 18.6917 47.7042 18.1389Z" fill="#1A989D"/>
<path d="M43.9217 19.8254C44.7301 19.7332 45.5645 19.8844 46.2891 20.2591C47.4112 20.8336 48.2404 21.9474 48.4598 23.1907C48.67 24.3035 48.3915 25.496 47.7114 26.4007C47.0541 27.2971 46.0199 27.9058 44.9165 28.0404C43.7561 28.1967 42.5408 27.823 41.6661 27.0466C40.8504 26.3417 40.3328 25.3045 40.2634 24.2289C40.1889 23.2393 40.4891 22.228 41.0926 21.4402C41.7655 20.5479 42.8089 19.9465 43.9217 19.8254ZM43.9165 21.4992C43.0387 21.6617 42.281 22.3387 42.0222 23.1927C41.7831 23.9329 41.9228 24.7827 42.3907 25.4059C42.8275 26.0063 43.5449 26.3924 44.2881 26.4173C45.0262 26.4535 45.7674 26.1315 46.2529 25.5757C46.8439 24.9173 47.0344 23.9339 46.729 23.1027C46.3491 21.9733 45.0831 21.2477 43.9165 21.4992Z" fill="#1A989D"/>
<path d="M4.64166 33.8733C9.05763 33.8743 13.4736 33.8743 17.8896 33.8733C17.8917 34.4261 17.8906 34.9778 17.8896 35.5306C13.4736 35.5306 9.05763 35.5306 4.64166 35.5306C4.63959 34.9778 4.63959 34.4261 4.64166 33.8733Z" fill="#1A989D"/>
<path d="M6.29791 37.1858C9.60937 37.1868 12.9219 37.1868 16.2333 37.1858C16.2354 37.7386 16.2344 38.2903 16.2333 38.8431C12.9219 38.8431 9.60937 38.8431 6.29791 38.8431C6.29584 38.2903 6.29584 37.7386 6.29791 37.1858Z" fill="#1A989D"/>
<path d="M4.64166 40.4983C9.05763 40.4993 13.4736 40.4993 17.8896 40.4983C17.8917 41.0511 17.8906 41.6028 17.8896 42.1556C13.4736 42.1556 9.05763 42.1556 4.64166 42.1556C4.63959 41.6028 4.63959 41.0511 4.64166 40.4983Z" fill="#1A989D"/>
<path d="M26.5311 43.8575C27.3199 43.7011 28.176 43.9589 28.7432 44.5303C29.4068 45.17 29.6552 46.1948 29.3591 47.0675C29.0745 47.9639 28.2432 48.6523 27.3085 48.7589C26.4296 48.879 25.5104 48.4774 24.9949 47.7569C24.5105 47.1089 24.3852 46.2176 24.6626 45.4588C24.9473 44.6462 25.6833 44.0127 26.5311 43.8575ZM26.7329 45.5137C26.1771 45.6783 25.9835 46.465 26.4038 46.8667C26.8044 47.3252 27.6449 47.1223 27.7909 46.5313C28.0072 45.9216 27.3323 45.2756 26.7329 45.5137Z" fill="#1A989D"/>
</svg>
