<svg width="51" height="51" viewBox="0 0 51 51" fill="none" xmlns="http://www.w3.org/2000/svg">
<g clip-path="url(#clip0_13_131)">
<path d="M51.0013 18.9549C50.6156 20.2814 50.2004 21.5894 49.8493 22.9199C48.8135 26.8703 47.8257 30.834 46.7711 34.7792C46.4201 36.1637 45.6976 37.4277 44.6807 38.4364C43.498 39.5945 42.3394 40.7765 41.154 41.9319C40.0728 42.9852 39.436 44.2573 39.1344 45.8372C39.2945 45.9699 39.5348 46.1025 39.6897 46.3002C40.0674 46.8162 40.3571 47.3614 40.0367 48.038C39.8845 48.3616 39.8392 48.7344 39.7324 49.0793C39.364 50.2612 38.579 50.7123 37.371 50.4058C36.7289 50.244 36.0989 50.0344 35.4648 49.842C32.771 49.0196 30.0733 48.2091 27.3848 47.3667C25.9325 46.9117 25.6148 46.2591 26.0593 44.8198C26.098 44.6937 26.1474 44.5704 26.1848 44.4444C26.6253 42.9215 26.971 42.6376 28.5515 42.5368C29.0441 40.9184 29.5393 39.2815 30.0426 37.6458C30.2948 36.8274 30.5431 36.0062 30.8288 35.197C31.005 34.6247 31.3723 34.1292 31.87 33.7922C32.0862 33.6394 32.2881 33.4676 32.4734 33.2789C33.8229 32.0107 35.1658 30.7372 36.518 29.473C37.423 28.6267 38.4189 28.4781 39.5335 29.01C39.7671 29.1228 39.9873 29.2661 40.3264 29.4584C40.9311 28.2513 41.5278 27.0839 42.1004 25.9073C42.4769 25.1379 42.8186 24.3499 43.191 23.5779C44.1254 21.6438 45.0598 19.7123 46.0089 17.7888C46.1853 17.4349 46.4099 17.1068 46.6764 16.8138C46.9335 16.5203 47.2589 16.2936 47.6243 16.1536C47.9897 16.0136 48.384 15.9645 48.7729 16.0105C49.1618 16.0566 49.5334 16.1964 49.8555 16.4178C50.1776 16.6391 50.4404 16.9354 50.6209 17.2808C50.7357 17.5129 50.8759 17.7331 51.0053 17.96L51.0013 18.9549ZM37.8849 45.4857C37.9904 45.1633 38.0851 44.9206 38.1519 44.6699C38.5083 43.2863 39.2398 42.1494 40.2877 41.1665C41.4717 40.0575 42.5943 38.8835 43.7583 37.7466C44.5599 36.9499 45.1522 35.9696 45.483 34.8919C45.6859 34.2658 45.8527 33.6277 46.0169 32.991C47.0581 29.0742 48.0975 25.1569 49.1352 21.2392C49.3541 20.4114 49.5904 19.5863 49.7586 18.7466C49.9668 17.7079 49.0484 16.8576 48.0646 17.229C47.6828 17.3736 47.3291 17.7941 47.1302 18.1762C46.5002 19.3701 45.9569 20.6157 45.3642 21.8321C44.0774 24.4759 42.7692 27.1091 41.4931 29.7609C41.2688 30.2265 41.0726 30.7571 41.0632 31.2612C41.0614 31.6905 40.9681 32.1145 40.7893 32.5052C40.6105 32.896 40.3504 33.2447 40.026 33.5282C38.8887 34.5895 37.7568 35.6507 36.6155 36.7119C36.4531 36.876 36.2535 36.9988 36.0334 37.0701C35.9419 37.0859 35.848 37.0813 35.7585 37.0568C35.669 37.0322 35.586 36.9883 35.5155 36.9282C35.4533 36.8598 35.4076 36.7784 35.3817 36.6899C35.3558 36.6014 35.3504 36.5083 35.366 36.4174C35.4444 36.2027 35.5773 36.0117 35.7518 35.863C36.9612 34.7381 38.1866 33.6277 39.3987 32.5055C39.8805 32.0598 39.9913 31.0967 39.6416 30.5847C39.1904 29.9214 38.4696 29.7343 37.7327 30.1137C37.4663 30.2459 37.2193 30.4137 36.9986 30.6125C35.6196 31.8979 34.2661 33.2099 32.8765 34.486C32.3079 34.9944 31.8952 35.6519 31.6858 36.383C31.1852 38.0915 30.6393 39.7882 30.124 41.4928C29.9745 41.9876 29.865 42.4943 29.7235 43.0462L37.8849 45.4857ZM27.9628 43.7983C27.808 43.9243 27.7079 43.9708 27.6598 44.049C26.7374 45.5653 26.8789 45.9752 28.5542 46.4859C31.3347 47.3349 34.1326 48.1335 36.9051 49.0063C38.5937 49.5369 38.4482 49.1748 38.806 47.7581C38.9168 47.3216 38.7446 46.9913 38.252 46.8746C37.9637 46.8056 37.6887 46.6822 37.403 46.5973C35.4719 46.0216 33.5395 45.4468 31.6057 44.8728L27.9628 43.7983Z" fill="white"/>
<path d="M11.8149 45.7469C11.5351 44.1093 10.6845 42.6217 9.41216 41.5445C8.53782 40.7857 7.79296 39.881 6.9253 39.1142C5.40221 37.7705 4.4985 36.1017 3.99926 34.1636C2.70978 29.1519 1.38827 24.1482 0.089439 19.1379C-0.205567 17.9997 0.201558 16.9504 1.11327 16.3879C2.16648 15.7353 3.30112 15.8175 4.23152 16.6532C4.44203 16.8618 4.61176 17.1074 4.7321 17.3775C6.51193 21.0299 8.2882 24.6846 10.0609 28.3414C10.2331 28.6956 10.42 29.0418 10.6242 29.4384C10.9366 29.2673 11.1862 29.1161 11.4478 28.9887C12.5304 28.4581 13.5182 28.6505 14.3845 29.4424C15.6046 30.5594 16.7993 31.6975 18.0087 32.8317C18.2207 33.0405 18.4468 33.2347 18.6855 33.4128C19.4525 33.9479 20.0122 34.7278 20.2713 35.6228C20.9788 37.9217 21.697 40.2179 22.4311 42.5818C22.6453 42.5646 22.8604 42.5646 23.0745 42.5818C24.4828 42.8113 25.6255 45.3994 24.8005 46.576C24.5386 46.9111 24.18 47.1587 23.7727 47.2857C21.8491 47.9119 19.9016 48.4796 17.9727 49.0713C16.6725 49.4692 15.375 49.8672 14.0682 50.2453C13.659 50.3733 13.2341 50.4451 12.8054 50.4588C12.5193 50.4712 12.2366 50.3939 11.9971 50.238C11.7576 50.0821 11.5734 49.8554 11.4705 49.5899C11.2326 49.0459 11.0493 48.4798 10.9232 47.8999C10.7403 46.9554 10.9406 46.5535 11.8149 45.7469ZM21.2778 43.0448C20.533 40.6225 19.8375 38.2865 19.0846 35.969C18.9196 35.5062 18.6492 35.0876 18.2944 34.7459C16.8541 33.3318 15.3764 31.9602 13.9013 30.5779C13.6784 30.3805 13.428 30.216 13.1578 30.0898C12.8621 29.9372 12.5207 29.8966 12.1971 29.9754C11.8735 30.0542 11.5897 30.2471 11.3984 30.5183C10.998 31.0953 10.998 31.8302 11.5079 32.321C12.6198 33.4075 13.7772 34.4554 14.8918 35.5326C15.1522 35.781 15.3769 36.064 15.5592 36.3736C15.5878 36.4609 15.5938 36.554 15.5765 36.6442C15.5592 36.7344 15.5193 36.8188 15.4604 36.8896C15.2847 37.0118 15.0724 37.0707 14.8584 37.0568C14.6949 37.0236 14.5465 36.939 14.4353 36.8153C13.1511 35.6215 11.8603 34.4276 10.6042 33.2098C10.173 32.7893 9.88069 32.2428 9.90605 31.618C9.93676 30.8578 9.66578 30.2012 9.34007 29.5419C7.95359 26.7252 6.57422 23.9059 5.20198 21.0839C5.08584 20.8464 5.00709 20.5917 4.89096 20.3556C4.46781 19.4947 4.07534 18.6178 3.59613 17.7888C3.45105 17.523 3.21091 17.3211 2.9232 17.2228C2.63549 17.1246 2.32116 17.1372 2.04235 17.2581C1.75788 17.3923 1.52645 17.6168 1.38456 17.8961C1.24268 18.1755 1.19842 18.4938 1.25877 18.8009C1.30549 19.0264 1.36023 19.2506 1.41763 19.4735C2.66973 24.2587 3.92274 29.0431 5.17662 33.8266C5.63715 35.5896 6.45409 37.1324 7.82633 38.3833C8.83016 39.2973 9.74187 40.3108 10.7323 41.2394C11.6923 42.1138 12.3861 43.2385 12.7346 44.4854C12.8281 44.8197 12.9843 45.1367 13.1351 45.5055L21.2778 43.0448ZM12.7133 49.3167C13.1458 49.2159 13.5609 49.1416 13.9641 49.0235C15.7439 48.5044 17.5206 47.9782 19.2942 47.4449C20.593 47.047 21.8932 46.6609 23.18 46.2298C23.8581 46.0016 23.9409 45.7788 23.7593 45.1062C23.7153 44.947 23.6632 44.7905 23.6098 44.634C23.3108 43.7797 23.2494 43.7346 22.3991 43.988C19.5131 44.8484 16.6293 45.7156 13.7478 46.5893C11.8176 47.169 11.7789 47.2619 12.7133 49.3167Z" fill="white"/>
<path d="M28.6783 29.4438C29.3698 29.4438 29.8957 29.4372 30.4217 29.4438C30.7781 29.4438 31.268 29.3563 31.3561 29.7914C31.4148 30.0832 31.2226 30.4865 31.0237 30.7558C30.164 31.9245 29.263 33.0626 28.374 34.2114C27.6278 35.1771 26.8843 36.1455 26.1287 37.1033C25.6201 37.7493 25.3278 37.7533 24.8299 37.1152C23.1969 34.9998 21.5692 32.8796 19.9469 30.7545C19.9259 30.7291 19.9084 30.701 19.8949 30.6709C19.7801 30.3777 19.5278 30.0501 19.5865 29.7954C19.6866 29.3603 20.1619 29.4478 20.5209 29.4425C21.0469 29.4345 21.5728 29.4425 22.2082 29.4425C22.2997 28.3759 22.3046 27.3037 22.2229 26.2363C22.2109 26.0598 21.8999 25.8078 21.6889 25.7547C19.5892 25.2414 17.8432 24.0674 16.3601 22.6121C14.4913 20.7855 13.1925 18.5635 12.7106 15.9423C12.0739 12.4827 12.6412 9.19816 14.5474 6.26916C16.567 3.16771 19.5064 1.30789 23.224 0.697685C25.5681 0.314315 27.856 0.468191 30.0706 1.29197C33.5719 2.59596 36.0775 4.93598 37.4804 8.42744C38.3047 10.4521 38.6253 12.6446 38.4149 14.8187C38.3147 15.8521 37.9944 16.8868 37.6313 17.8698C36.4753 21.007 34.3021 23.298 31.3988 24.911C30.7687 25.2612 30.0532 25.4748 29.3591 25.6937C28.8665 25.8476 28.665 26.1129 28.681 26.6223C28.697 27.5111 28.6783 28.3972 28.6783 29.4438ZM29.5086 30.7425C29.1375 30.6961 28.9453 30.6656 28.7531 30.6497C27.7252 30.5648 27.485 30.3273 27.4716 29.2979C27.4574 28.2075 27.4574 27.1171 27.4716 26.0267C27.4836 25.1498 27.6171 24.9654 28.406 24.7519C30.7727 24.1454 32.8939 22.829 34.481 20.9818C35.3334 20.0122 36.0144 18.9061 36.4953 17.7106C37.383 15.4634 37.4965 13.1751 37.0293 10.8325C36.5089 8.11171 34.9982 5.6768 32.7857 3.99281C30.0639 1.87034 26.8602 1.31718 23.5471 1.78147C20.2633 2.24178 17.5308 3.85485 15.7047 6.68967C13.3767 10.3032 13.0136 14.1435 14.6956 18.1138C15.4831 19.971 16.7272 21.4872 18.3558 22.7196C19.6239 23.6787 21.0255 24.2915 22.5352 24.7466C23.3362 24.9906 23.4576 25.1445 23.4697 25.9258C23.491 27.1489 23.4883 28.3707 23.4697 29.5924C23.459 30.2809 23.2187 30.5316 22.5352 30.6324C22.2456 30.6749 21.9506 30.6762 21.5167 30.7054C22.1081 31.699 22.7769 32.4975 23.4456 33.2974C24.1304 34.1186 24.627 35.0989 25.5721 35.8802L29.5086 30.7425Z" fill="white"/>
<path d="M15.084 13.3834C14.8811 7.50547 19.5118 2.89441 25.6615 2.94747C31.2226 2.99523 35.916 7.20037 35.96 13.26C36.0014 18.9031 31.9875 23.7397 25.476 23.7782C19.4998 23.8073 14.9025 19.3369 15.084 13.3834ZM34.8401 13.5824C34.6292 8.01088 31.0744 4.17851 25.5427 4.14667C19.967 4.11484 16.2453 7.85303 16.1773 13.4616C16.1172 18.5158 20.1418 22.5829 25.4693 22.6148C30.9463 22.6466 34.6278 18.2385 34.8401 13.5824Z" fill="white"/>
<path d="M24.7618 7.77076C24.9554 7.21759 24.7365 6.57688 25.4466 6.33545C26.2048 6.4827 25.9939 7.1778 26.1808 7.79464C26.7308 7.81189 27.3141 7.82648 27.8961 7.8477C28.2885 7.86229 28.8065 7.79199 28.8052 8.35047C28.8038 8.90894 28.2832 8.84129 27.8921 8.84792C27.3354 8.8572 26.7788 8.84792 26.0927 8.84792C26.0927 10.0418 26.078 11.119 26.0927 12.1948C26.0927 12.6126 26.4598 12.6896 26.7735 12.8063C27.7306 13.1632 28.3873 13.8079 28.701 14.7961C28.8302 15.1874 28.8749 15.6014 28.8323 16.011C28.7897 16.4207 28.6608 16.8168 28.4539 17.1736C28.247 17.5304 27.9667 17.8399 27.6314 18.0819C27.2961 18.3239 26.9133 18.493 26.5078 18.5781C26.4131 18.598 26.3209 18.6338 26.1568 18.6829C26.1247 18.984 26.1461 19.3236 26.0366 19.6115C25.9903 19.7243 25.9211 19.8264 25.8334 19.9115C25.7457 19.9966 25.6413 20.0629 25.5267 20.1063C25.1997 20.1965 24.9594 19.9829 24.8953 19.6367C24.8486 19.3833 24.8206 19.1273 24.7618 18.7545C24.2706 18.7545 23.8141 18.7638 23.3589 18.7545C23.0919 18.7466 22.7835 18.7797 22.5873 18.6524C22.3612 18.4905 22.2068 18.2481 22.1562 17.9758C22.1401 17.8684 22.5126 17.6004 22.7235 17.5779C23.3789 17.5261 24.0397 17.5593 24.8259 17.5593C24.89 16.2898 24.8793 15.1238 24.8259 13.8967C23.0665 13.4112 21.9573 12.3487 22.1054 10.4955C22.2336 8.98853 23.2214 8.08648 24.7618 7.77076ZM26.1461 17.2741C27.1753 17.1706 27.6265 16.701 27.6598 15.7672C27.6959 14.759 27.1539 14.101 26.1461 13.9578V17.2741ZM24.7351 12.545C24.9581 11.4585 24.918 9.77517 24.6684 9.12383C23.8448 9.29761 23.3615 9.78711 23.2868 10.5207C23.188 11.4851 23.6112 12.1006 24.7351 12.545Z" fill="white"/>
</g>
<defs>
<clipPath id="clip0_13_131">
<rect width="51" height="50" fill="white" transform="translate(0 0.5)"/>
</clipPath>
</defs>
</svg>
