<svg width="34" height="50" viewBox="0 0 34 50" fill="none" xmlns="http://www.w3.org/2000/svg">
<g clip-path="url(#clip0_19_435)">
<path d="M24.4523 20.2364C24.3568 20.2274 24.3152 20.171 24.2831 20.0855C24.1534 19.7418 24.0134 19.4017 23.8775 19.06C23.8564 19.0099 23.839 18.9582 23.8256 18.9055C23.8145 18.8573 23.7947 18.8144 23.8582 18.767C23.9216 18.7195 23.8993 18.6341 23.8582 18.5524L23.712 18.5933C23.7075 18.57 23.712 18.5311 23.6943 18.5115C23.3953 18.1665 23.2529 17.7329 23.0301 17.3454C22.4426 16.3226 21.777 15.346 21.0392 14.4242C20.3103 13.512 19.5217 12.6484 18.6785 11.8389C17.8999 11.0922 17.0904 10.3761 16.2796 9.66242C14.9451 8.48772 13.5364 7.40253 12.1372 6.3059C11.2976 5.64784 10.4547 4.99304 9.68967 4.2471C9.26761 3.83837 8.87066 3.40307 8.54249 2.91422C8.3679 2.65427 8.21719 2.37837 8.06031 2.10738C7.79678 1.65328 7.53366 1.19918 7.27795 0.741803C7.10419 0.433618 7.2656 0.0784276 7.60366 0.0105778C7.80748 -0.0302956 8.00225 0.060444 8.12043 0.261541C8.30325 0.572996 8.47867 0.888539 8.66149 1.20163C8.90238 1.61282 9.13049 2.0334 9.39484 2.42783C9.76543 2.98739 10.239 3.46806 10.75 3.90172C11.4949 4.53404 12.2603 5.14223 13.0205 5.75697C14.0725 6.60795 15.1324 7.44994 16.1808 8.30583C17.288 9.21036 18.3491 10.1672 19.3736 11.1633C20.4209 12.1746 21.3886 13.2641 22.2683 14.4221C23.2149 15.666 24.0188 17.0107 24.6652 18.4314C25.2042 19.6265 25.6053 20.8674 25.9162 22.1398C26.2271 23.4122 26.4383 24.6981 26.6907 25.9791C26.8208 26.6392 26.9476 27.3021 27.121 27.952C27.4475 29.1782 27.9083 30.3533 28.5515 31.4581C29.1761 32.5315 29.6764 33.6653 30.1117 34.8278C30.3147 35.3689 30.5045 35.9158 30.6848 36.4651C31.0264 37.4988 31.2839 38.5579 31.4548 39.6324C31.5915 40.5014 31.6653 41.3765 31.6224 42.2569C31.5763 43.1937 31.4091 44.1072 31.0167 44.9688C30.5226 46.0508 29.7608 46.9103 28.7932 47.5929C27.6526 48.3961 26.3716 48.8784 25.0198 49.1931C24.2383 49.3733 23.4444 49.4955 22.6447 49.5589C21.715 49.6375 20.7813 49.6562 19.8492 49.6149C18.938 49.572 18.0292 49.5046 17.1274 49.3697C16.3693 49.2552 15.6146 49.1187 14.8582 48.9912C14.8042 48.9819 14.7509 48.9695 14.6984 48.954C14.5806 48.9239 14.4786 48.8509 14.4128 48.7494C14.3469 48.648 14.322 48.5256 14.3431 48.4067C14.3571 48.294 14.4145 48.1911 14.5032 48.1193C14.5918 48.0476 14.705 48.0126 14.8191 48.0217C15.0168 48.0361 15.2131 48.0656 15.4062 48.11C16.3532 48.3008 17.3093 48.4442 18.2709 48.5395C19.3078 48.6494 20.3509 48.6913 21.3933 48.665C22.4845 48.6323 23.5674 48.5224 24.6356 48.2919C25.3596 48.1413 26.0666 47.9189 26.7459 47.6281C27.9124 47.1176 28.9402 46.4252 29.6781 45.3649C30.1211 44.7277 30.3912 44.0226 30.5304 43.2628C30.7223 42.2123 30.6828 41.1619 30.5395 40.1115C30.2924 38.3155 29.7674 36.5963 29.1028 34.9136C28.7575 34.0254 28.3611 33.1576 27.9157 32.3144C27.6081 31.7381 27.2935 31.1647 27.0098 30.5761C26.736 30.0039 26.5441 29.4018 26.358 28.7957C26.0101 27.6606 25.7968 26.4982 25.5806 25.3349C25.3525 24.1046 25.1235 22.8747 24.7916 21.6665C24.7093 21.3718 24.6129 21.0812 24.526 20.7882C24.4816 20.6386 24.4404 20.4879 24.4025 20.3361C24.3988 20.3144 24.4289 20.2858 24.4523 20.2364Z" fill="#1A989D"/>
<path d="M0 41.3017C0.0259413 39.9324 0.298946 38.6245 0.889008 37.386C1.40825 36.2967 2.12431 35.348 3.00055 34.5175C4.32232 33.2635 5.85533 32.3422 7.55839 31.6927C7.63411 31.6621 7.71294 31.6396 7.79351 31.6257C8.06034 31.5848 8.28022 31.7246 8.35022 31.967C8.41734 32.1992 8.29134 32.446 8.04881 32.5462C7.79557 32.65 7.53657 32.7403 7.28662 32.8499C5.91379 33.4527 4.67026 34.2514 3.59514 35.2957C2.59496 36.2677 1.83648 37.395 1.40083 38.7242C1.20092 39.3324 1.07647 39.9626 1.03024 40.6007C0.900947 42.3918 1.27401 44.0905 1.99707 45.7209C2.33394 46.4991 2.82874 47.2001 3.45061 47.7801C4.14183 48.4313 5.01931 48.854 5.96239 48.9899C6.7943 49.1156 7.64488 49.0214 8.42845 48.7169C8.76322 48.5877 9.05393 48.3785 9.32776 48.1508C9.80046 47.7572 10.2662 47.355 10.7368 46.9585C11.5389 46.2825 12.3884 45.6767 13.3573 45.2521C14.0415 44.9523 14.7662 44.7533 15.5084 44.6615C16.7243 44.5078 17.9151 44.6427 19.0928 44.9476C19.3179 45.0059 19.5419 45.0688 19.7648 45.1364C19.9616 45.1965 20.1041 45.3179 20.1387 45.5296C20.1536 45.6088 20.148 45.6905 20.1225 45.767C20.097 45.8435 20.0523 45.9123 19.9927 45.967C19.9331 46.0217 19.8605 46.0605 19.7817 46.0798C19.7029 46.0991 19.6204 46.0982 19.542 46.0773C19.3362 46.0279 19.1348 45.9588 18.9302 45.9036C18.0514 45.6665 17.1596 45.5357 16.2471 45.5684C15.2572 45.6019 14.2871 45.852 13.4059 46.3009C12.4741 46.7713 11.6794 47.4274 10.8941 48.0993C10.4824 48.4496 10.0706 48.7942 9.64358 49.1265C9.19063 49.48 8.66934 49.6987 8.10728 49.8315C7.19769 50.0445 6.28892 50.0653 5.37644 49.8585C4.17367 49.5859 3.17514 48.9728 2.36107 48.0601C1.62895 47.2385 1.12083 46.2882 0.752711 45.259C0.475241 44.4971 0.277239 43.7088 0.161822 42.9068C0.0877035 42.3754 0.0522944 41.8363 0 41.3017Z" fill="#1A989D"/>
<path d="M19.9406 7.28964C20.0761 7.15721 20.2124 7.02519 20.3471 6.89195C21.5736 5.67447 22.8004 4.45698 24.0274 3.2395C24.075 3.19043 24.1252 3.1439 24.1777 3.10012C24.3951 2.92805 24.6632 2.94153 24.8464 3.13119C24.9337 3.22433 24.9812 3.34751 24.9787 3.47472C24.9763 3.60192 24.9241 3.7232 24.8332 3.81295C24.5796 4.07127 24.3194 4.32346 24.0624 4.57811C22.9564 5.67433 21.8504 6.77069 20.7444 7.86719C20.711 7.89988 20.6798 7.93463 20.6279 7.98981C20.779 7.98981 20.9033 7.99757 21.0265 7.98981C21.4024 7.96242 21.7775 7.92441 22.1535 7.89948C22.2396 7.89112 22.3264 7.90673 22.4042 7.94455C22.4819 7.98238 22.5475 8.04093 22.5936 8.11365C22.6241 8.15902 22.676 8.21011 22.6126 8.27183C22.6103 8.27873 22.6099 8.28606 22.6111 8.29319C22.6124 8.30032 22.6155 8.30702 22.62 8.31271C22.7098 8.35603 22.6731 8.4296 22.6612 8.49173C22.6499 8.55654 22.6239 8.61793 22.585 8.67121C22.5462 8.72449 22.4956 8.76825 22.4371 8.79914C22.3786 8.83002 22.3138 8.84721 22.2476 8.8494C22.1813 8.85159 22.1155 8.83872 22.0551 8.81177C21.829 8.93439 21.7178 8.93439 21.5556 8.8085C21.4955 8.92417 21.493 8.92295 21.3835 8.93112C20.7279 8.97894 20.072 9.02309 19.4173 9.07867C19.0516 9.10974 18.8145 8.91314 18.833 8.54732C18.856 8.0924 18.8964 7.63789 18.9314 7.18337C18.9656 6.73377 19.0022 6.28784 19.0389 5.84028C19.0413 5.77259 19.0491 5.70521 19.0623 5.63877C19.0874 5.52108 19.1567 5.41729 19.2562 5.3485C19.3556 5.27972 19.4777 5.2511 19.5976 5.26846C19.7151 5.28152 19.8233 5.33786 19.901 5.42634C19.9786 5.51481 20.0199 5.62899 20.0168 5.74627C20.009 6.01808 19.9756 6.28907 19.9567 6.56046C19.9386 6.79699 19.9207 7.03351 19.9032 7.27003L19.9406 7.28964Z" fill="#1A989D"/>
<path d="M29.6353 20.5778C29.8774 20.561 30.0882 20.5471 30.2966 20.5316C30.5976 20.5099 30.8982 20.4773 31.1992 20.4683C31.2732 20.4642 31.3472 20.4775 31.415 20.5073C31.4829 20.537 31.5426 20.5823 31.5895 20.6394C31.6363 20.6965 31.6688 20.7638 31.6843 20.8358C31.6999 20.9078 31.698 20.9824 31.6789 21.0536C31.6311 21.2579 31.4985 21.3912 31.2844 21.4165C31.0258 21.4468 30.766 21.4635 30.5066 21.4836C29.8371 21.5364 29.1674 21.5882 28.4976 21.6389C28.4362 21.6457 28.3745 21.6491 28.3127 21.6491C28.0537 21.6397 27.8523 21.4545 27.8532 21.1962C27.8532 20.9101 27.8799 20.624 27.9009 20.3411C27.9359 19.8662 27.9763 19.3917 28.0137 18.9167C28.0302 18.7066 28.0409 18.4957 28.0619 18.286C28.0883 18.0253 28.2884 17.8319 28.5293 17.8242C28.759 17.8168 28.9843 17.9823 29.0234 18.2067C29.0366 18.3145 29.0366 18.4235 29.0234 18.5313C28.9913 18.9649 28.9559 19.3982 28.9172 19.8854C29.0061 19.8037 29.0633 19.7505 29.1177 19.6966C30.4485 18.3802 31.7791 17.0632 33.1094 15.7457C33.2242 15.6317 33.3449 15.5491 33.5211 15.5536C33.732 15.559 33.8827 15.6546 33.9588 15.8357C34.035 16.0167 34.0144 16.2011 33.8732 16.3503C33.6994 16.5334 33.517 16.7087 33.3379 16.8869C32.1377 18.075 30.9387 19.2626 29.7407 20.4499C29.7086 20.4813 29.683 20.5189 29.6353 20.5778Z" fill="#1A989D"/>
<path d="M26.3798 12.2031L27.0745 11.5156C28.2348 10.3665 29.3952 9.21742 30.5556 8.06834C30.7071 7.91792 30.8767 7.84026 31.0933 7.91629C31.1657 7.93954 31.2314 7.97954 31.2851 8.03299C31.3388 8.08644 31.3789 8.15181 31.4021 8.22369C31.4253 8.29557 31.431 8.3719 31.4186 8.44638C31.4062 8.52086 31.3762 8.59134 31.3309 8.65201C31.2844 8.71042 31.2333 8.76509 31.1782 8.8155L27.217 12.7393C27.17 12.7859 27.1268 12.8362 27.0683 12.8996C27.2075 12.8996 27.3228 12.9061 27.4389 12.8996C27.7947 12.8755 28.1496 12.8456 28.505 12.8178C28.5527 12.813 28.6007 12.8108 28.6487 12.8113C28.7701 12.8126 28.8865 12.8598 28.9742 12.9434C29.0618 13.0269 29.114 13.1405 29.1201 13.2609C29.1295 13.3848 29.0889 13.5073 29.0074 13.6016C28.9259 13.6959 28.8101 13.7543 28.6853 13.764C28.2143 13.807 27.7428 13.8421 27.2713 13.8797C26.7863 13.9181 26.3012 13.9533 25.8161 13.9946C25.5061 14.0211 25.2442 13.7902 25.2623 13.4796C25.2849 13.0994 25.3208 12.7197 25.3512 12.34C25.3877 11.886 25.4245 11.4318 25.4616 10.9773C25.4727 10.8416 25.4801 10.7055 25.5003 10.571C25.5345 10.3393 25.7453 10.1594 25.9747 10.1745C26.2592 10.1933 26.4099 10.3499 26.447 10.598C26.4558 10.6795 26.4558 10.7617 26.447 10.8432C26.4144 11.29 26.3794 11.7367 26.3457 12.1835L26.3798 12.2031Z" fill="#1A989D"/>
<path d="M18.4191 17.7465C18.4191 17.9917 18.3059 18.1528 18.1017 18.228C18.0089 18.2654 17.9064 18.2717 17.8098 18.2459C17.7131 18.2201 17.6276 18.1635 17.5664 18.0849C17.4435 17.9213 17.3334 17.7486 17.237 17.5683C17.1836 17.464 17.1714 17.3437 17.2026 17.231C17.2338 17.1182 17.3063 17.021 17.4058 16.9584C17.5964 16.8313 17.8744 16.8489 18.0234 17.0332C18.1725 17.2176 18.2779 17.4187 18.394 17.6169C18.4114 17.6579 18.42 17.702 18.4191 17.7465Z" fill="#1A989D"/>
<path d="M18.7317 18.5438C18.8073 18.5384 18.8831 18.5531 18.9511 18.5865C19.0192 18.6198 19.077 18.6705 19.1187 18.7335C19.2263 18.8824 19.3249 19.0376 19.414 19.1982C19.4767 19.3051 19.4952 19.432 19.4656 19.5522C19.4359 19.6723 19.3604 19.7764 19.255 19.8424C19.0253 19.9838 18.7494 19.927 18.5875 19.6964C18.4831 19.553 18.3883 19.4028 18.3038 19.2468C18.1288 18.9113 18.3549 18.5463 18.7317 18.5438Z" fill="#1A989D"/>
<path d="M15.0789 14.0743C15.0789 13.8336 15.1922 13.6705 15.3943 13.5969C15.5965 13.5234 15.8143 13.5744 15.944 13.7539C16.0589 13.9133 16.154 14.087 16.2578 14.2542C16.3665 14.4291 16.3159 14.6976 16.1104 14.8534C15.9325 14.9887 15.6575 14.9915 15.5092 14.8174C15.347 14.629 15.2284 14.4029 15.0974 14.1896C15.0829 14.153 15.0765 14.1136 15.0789 14.0743Z" fill="#1A989D"/>
<path d="M23.021 25.1702C23.0843 25.1746 23.1458 25.1934 23.2006 25.225C23.2554 25.2567 23.3022 25.3005 23.3373 25.3529C23.4415 25.5042 23.5432 25.6574 23.6333 25.8173C23.77 26.0625 23.6939 26.3449 23.4686 26.4757C23.2253 26.6171 22.9453 26.544 22.7933 26.3C22.7036 26.1561 22.6023 26.0179 22.5253 25.8675C22.3544 25.5377 22.5957 25.1645 23.021 25.1702Z" fill="#1A989D"/>
<path d="M13.142 9.44179C13.142 9.69316 13.0184 9.87055 12.8266 9.94044C12.7296 9.97704 12.6234 9.98178 12.5236 9.95397C12.4237 9.92615 12.3355 9.86726 12.2719 9.78594C12.1545 9.62709 12.0494 9.45957 11.9577 9.28483C11.9016 9.1778 11.8892 9.05337 11.9233 8.93753C11.9574 8.82169 12.0352 8.72339 12.1406 8.66315C12.2428 8.59806 12.3665 8.57481 12.4856 8.59828C12.6048 8.62175 12.7102 8.69012 12.7796 8.78904C12.8908 8.94383 12.9937 9.10427 13.088 9.26971C13.1139 9.32432 13.1321 9.38223 13.142 9.44179Z" fill="#1A989D"/>
<path d="M15.2646 12.7941C15.251 13.0046 15.1411 13.1767 14.9587 13.2482C14.7709 13.3226 14.5362 13.2838 14.4147 13.1256C14.2798 12.9548 14.1618 12.7715 14.0623 12.5783C13.9474 12.3498 14.0499 12.0878 14.2681 11.9652C14.3741 11.9074 14.498 11.8909 14.6156 11.9187C14.7332 11.9466 14.8361 12.0169 14.9043 12.116C15.0056 12.2607 15.0995 12.4111 15.1864 12.5656C15.2259 12.6351 15.2395 12.7181 15.2646 12.7941Z" fill="#1A989D"/>
<path d="M20.8724 21.857C21.0215 21.8512 21.1516 21.9334 21.2463 22.0687C21.341 22.204 21.4366 22.3515 21.5197 22.4999C21.6618 22.7533 21.584 23.0382 21.3452 23.1727C21.1166 23.3014 20.8362 23.2275 20.683 22.9949C20.5937 22.8584 20.4994 22.7235 20.424 22.5792C20.2416 22.2273 20.4631 21.857 20.8724 21.857Z" fill="#1A989D"/>
<path d="M13.5109 10.2515C13.5796 10.2578 13.6458 10.2799 13.7045 10.3158C13.7633 10.3517 13.8128 10.4006 13.8494 10.4587C13.9416 10.5936 14.0236 10.7346 14.1141 10.8707C14.1504 10.9244 14.1757 10.9847 14.1884 11.0481C14.2011 11.1115 14.2011 11.1768 14.1883 11.2402C14.1755 11.3036 14.1502 11.3638 14.1139 11.4175C14.0776 11.4712 14.0309 11.5172 13.9766 11.5529C13.7411 11.698 13.4603 11.6379 13.2947 11.3951C13.1992 11.2545 13.1061 11.1114 13.025 10.9627C12.8455 10.634 13.0724 10.2572 13.5109 10.2515Z" fill="#1A989D"/>
<path d="M20.5303 21.0592C20.5303 21.2975 20.4195 21.4639 20.2326 21.5366C20.0386 21.6122 19.813 21.573 19.6907 21.414C19.5615 21.2467 19.4468 21.069 19.3477 20.8826C19.2967 20.781 19.2843 20.6645 19.3125 20.5545C19.3408 20.4444 19.4079 20.3481 19.5017 20.283C19.7043 20.1437 19.9793 20.1584 20.1341 20.3492C20.2741 20.5221 20.3833 20.7212 20.4977 20.9137C20.5175 20.9598 20.5285 21.0091 20.5303 21.0592Z" fill="#1A989D"/>
<path d="M21.4053 23.9905C21.4242 23.7694 21.5407 23.6059 21.7417 23.5373C21.8356 23.5017 21.9386 23.4974 22.0351 23.5251C22.1317 23.5527 22.2166 23.6108 22.277 23.6905C22.394 23.8493 22.4998 24.0159 22.5936 24.1892C22.6505 24.295 22.6648 24.4184 22.6335 24.5343C22.6023 24.6501 22.5278 24.7499 22.4252 24.8133C22.3197 24.8797 22.1926 24.9034 22.07 24.8795C21.9475 24.8556 21.8388 24.786 21.7664 24.685C21.6636 24.5407 21.5692 24.3905 21.4839 24.2354C21.4427 24.1626 21.4304 24.0731 21.4053 23.9905Z" fill="#1A989D"/>
<path d="M24.2798 28.1991C24.2043 28.2038 24.1288 28.189 24.0607 28.1562C23.9927 28.1233 23.9344 28.0734 23.8915 28.0115C23.7799 27.8575 23.677 27.6975 23.5835 27.532C23.5219 27.4241 23.506 27.2964 23.5392 27.1768C23.5724 27.0573 23.652 26.9557 23.7606 26.8944C23.8679 26.8317 23.9953 26.8119 24.1168 26.839C24.2383 26.8661 24.3449 26.9381 24.4149 27.0403C24.5184 27.1837 24.6131 27.3332 24.6986 27.4879C24.8761 27.8214 24.6504 28.1983 24.2798 28.1991Z" fill="#1A989D"/>
<path d="M16.7947 16.5959C16.7124 16.5959 16.5785 16.5326 16.488 16.4005C16.3822 16.2506 16.2841 16.0955 16.194 15.9358C16.1344 15.8276 16.1182 15.7011 16.1488 15.5816C16.1793 15.4621 16.2543 15.3585 16.3587 15.2916C16.5645 15.1629 16.8676 15.2238 17.0142 15.4327C17.1218 15.5814 17.2196 15.7369 17.307 15.8982C17.4816 16.2305 17.2456 16.6033 16.7947 16.5959Z" fill="#1A989D"/>
</g>
<defs>
<clipPath id="clip0_19_435">
<rect width="34" height="50" fill="white"/>
</clipPath>
</defs>
</svg>
