<svg width="47" height="59" viewBox="0 0 47 59" fill="none" xmlns="http://www.w3.org/2000/svg">
<g clip-path="url(#clip0_13_219)">
<path d="M11.4876 13.9628C11.3038 12.488 11.038 11.0796 11.1201 9.63794C11.2182 7.74637 11.8872 5.92943 13.0383 4.42815C14.6822 2.24174 16.9128 0.974624 19.544 0.381011C20.6572 0.126348 21.7954 -0.00146363 22.9371 1.26431e-05C25.3662 0.0123028 27.7953 1.26431e-05 30.2243 1.26431e-05C30.8209 1.26431e-05 31.1124 0.186824 31.2717 0.653848C31.4309 1.12087 31.1676 1.71326 30.6776 1.8165C30.2783 1.89603 29.8719 1.93392 29.4649 1.92956C27.1779 1.94063 24.8921 1.92956 22.6052 1.92956C21.4419 1.9243 20.2849 2.10009 19.1753 2.45066C16.6336 3.2655 14.6491 4.76981 13.5981 7.30773C13.0996 8.51093 12.8632 9.76575 13.0555 11.0845C13.2147 12.1955 13.3487 13.311 13.4573 14.4311C13.5357 15.2447 13.3348 15.4843 12.5447 15.6859C11.8599 15.8592 11.5647 16.2218 11.6333 16.9149C11.7637 18.2571 12.0702 19.5762 12.5447 20.8379C12.7688 21.434 13.1412 21.6466 13.7819 21.6196C13.8836 21.6196 13.9852 21.5925 14.0869 21.5913C14.5989 21.5815 14.8856 21.772 15.0509 22.2685C15.1869 22.6741 15.2873 23.0919 15.4184 23.4975C15.9451 25.1936 16.9435 26.5492 18.3497 27.6221C19.3047 28.3569 20.3615 28.9477 21.4868 29.3759C22.762 29.8589 24.0457 29.9068 25.3099 29.4386C27.5478 28.609 29.4036 27.2595 30.6898 25.1997C31.1271 24.5004 31.3868 23.7249 31.611 22.9371C31.6784 22.7023 31.7421 22.4651 31.8302 22.2378C32.0336 21.7118 32.3092 21.5434 32.8592 21.5876C32.9609 21.5962 33.0613 21.6159 33.163 21.6184C33.6995 21.6319 34.1185 21.3787 34.3071 20.8687C34.8051 19.5686 35.1093 18.202 35.2099 16.8129C35.2503 16.191 34.9649 15.8395 34.3316 15.6822C33.4741 15.4684 33.2855 15.1181 33.4055 14.216C33.5795 12.9206 33.724 11.6203 33.8232 10.3188C33.9151 9.10454 33.3872 8.09183 32.6314 7.19097C31.9534 6.36641 31.0909 5.71413 30.1141 5.28723C29.7099 5.11394 29.5396 4.77842 29.5384 4.35932C29.5355 4.16208 29.6002 3.96983 29.7217 3.81478C29.8433 3.65972 30.0142 3.55128 30.206 3.50762C30.4181 3.44849 30.6435 3.45926 30.8491 3.53835C33.4288 4.72434 35.2123 6.5949 35.7121 9.47939C35.8224 10.1123 35.7366 10.7871 35.6803 11.436C35.6092 12.268 35.4769 13.0939 35.3703 13.9296C35.5774 14.0747 35.7611 14.1988 35.94 14.3303C36.6908 14.8895 37.111 15.6269 37.111 16.5757C37.111 18.064 36.7582 19.4897 36.3172 20.8982C36.2572 21.0923 36.1947 21.2853 36.1176 21.4758C35.7133 22.5549 34.9661 23.2419 33.8245 23.4533C33.5207 23.5098 33.3859 23.661 33.299 23.9547C32.5934 26.3206 31.1345 28.1223 29.1476 29.5381C28.2802 30.1821 27.3332 30.7105 26.3302 31.11C25.1727 31.5463 23.9759 31.7921 22.7375 31.6336C21.6082 31.4779 20.5142 31.1278 19.5036 30.5987C17.5841 29.6155 15.9108 28.3497 14.7263 26.5049C14.2226 25.735 13.8369 24.8936 13.5822 24.0088C13.4891 23.6806 13.3372 23.5086 12.9771 23.4373C11.8746 23.2148 11.1397 22.5364 10.7514 21.4709C10.2034 20.0169 9.85998 18.4935 9.73098 16.9444C9.64768 15.8223 10.0825 14.9104 11.0135 14.2566C11.1495 14.1693 11.3075 14.0771 11.4876 13.9628Z" fill="#1A989D"/>
<path d="M13.7905 32.6205C13.0984 33.3321 12.4602 33.9613 11.8624 34.6287C11.7399 34.7675 11.7325 35.0465 11.7313 35.2616C11.7215 37.228 11.7252 39.1945 11.7313 41.1609C11.7313 42.6971 11.7313 44.2334 11.7313 45.7697C11.7377 45.9336 11.7348 46.0977 11.7227 46.2613C11.6928 46.4965 11.5817 46.7138 11.4087 46.8754C11.2358 47.0371 11.0119 47.1329 10.7759 47.1462C10.3312 47.156 9.87307 46.7467 9.81673 46.2711C9.80242 46.0871 9.79915 45.9024 9.80692 45.7181V36.1318C9.62808 36.208 9.50559 36.2547 9.39289 36.31C8.18019 36.9392 6.95035 37.539 5.76828 38.2174C5.13743 38.5861 4.57763 39.0777 4.01048 39.5398C2.90803 40.4407 2.36047 41.6291 2.1804 43.0302C2.05791 44.0245 1.89255 45.0138 1.92684 46.0216C1.9346 46.2042 1.90371 46.3865 1.8362 46.5562C1.66838 46.9483 1.2127 47.199 0.856242 47.1339C0.633044 47.096 0.428944 46.9841 0.276605 46.8161C0.124266 46.6481 0.0324752 46.4337 0.015915 46.2072C0.00734035 46.1052 0.015915 46.002 0.015915 45.8999C0.0343656 44.4281 0.215128 42.9628 0.554895 41.5308C0.780754 40.5705 1.24851 39.6843 1.91337 38.9573C2.98982 37.749 4.28346 36.755 5.72663 36.0273C7.01528 35.3698 8.29902 34.7147 9.58644 34.0437C9.81774 33.9197 10.0285 33.7605 10.2112 33.5717C11.2364 32.5197 12.2482 31.4541 13.2735 30.396C13.935 29.7089 14.6638 29.8281 15.0497 30.7106C15.8729 32.5996 16.6789 34.4947 17.4849 36.3911C18.7613 39.3981 20.0348 42.4067 21.3055 45.4169C21.3742 45.5652 21.4351 45.717 21.488 45.8717C21.5601 46.0968 21.5477 46.3406 21.4532 46.5572C21.3587 46.7738 21.1885 46.9483 20.9748 47.0478C20.759 47.1477 20.5134 47.1606 20.2884 47.084C20.0634 47.0074 19.8763 46.8471 19.7657 46.6361C19.5379 46.2047 19.3578 45.7463 19.1667 45.2953C17.4804 41.3108 15.7949 37.3259 14.1102 33.3407C14.0036 33.1354 13.9203 32.9326 13.7905 32.6205Z" fill="#1A989D"/>
<path d="M29.4 37.3657C29.4 36.997 29.3926 36.7192 29.4 36.4365C29.422 35.7888 29.7809 35.4042 30.3603 35.398C30.9397 35.3919 31.3011 35.779 31.3207 36.4267C31.3292 36.7106 31.3207 36.9945 31.3207 37.3239C31.5387 37.3399 31.7151 37.3632 31.8903 37.3632C32.9719 37.3632 34.0535 37.3632 35.1352 37.3632C35.8787 37.3632 36.218 37.7 36.2192 38.4521C36.2258 40.9708 36.2258 43.489 36.2192 46.0069C36.2192 46.7221 35.8517 47.1007 35.1462 47.1486C35.0237 47.156 34.9012 47.1486 34.7787 47.1486C31.8388 47.1486 28.8989 47.1486 25.9591 47.1486C25.7544 47.1584 25.5493 47.1481 25.3466 47.1179C24.8003 47.0073 24.4891 46.6484 24.4891 46.0831C24.4818 43.5226 24.4818 40.963 24.4891 38.4042C24.4891 37.711 24.8566 37.3632 25.5622 37.3595C26.6034 37.3595 27.6446 37.3595 28.6846 37.3595L29.4 37.3657ZM26.4601 39.3173C26.3547 40.6004 26.3964 44.7373 26.514 45.1883H34.2642V39.321H31.3635C31.2276 39.8495 30.9226 40.2428 30.3689 40.2502C29.7821 40.2575 29.5114 39.7979 29.3363 39.3173H26.4601Z" fill="#1A989D"/>
<path d="M33.25 32.6008C33.0393 33.0715 32.8984 33.4279 32.7245 33.7671C32.3986 34.3988 31.6882 34.534 31.1957 34.0731C31.0555 33.9527 30.9572 33.7904 30.9154 33.61C30.8735 33.4296 30.8902 33.2405 30.963 33.0703C31.295 32.2603 31.6245 31.448 31.9834 30.6491C32.3509 29.8306 33.0674 29.7089 33.6836 30.3615C34.5925 31.3263 35.4732 32.3181 36.3895 33.2767C36.6557 33.5554 36.9641 33.7902 37.3033 33.9724C38.761 34.7466 40.2432 35.4804 41.6996 36.2485C43.0896 36.9917 44.322 37.9994 45.3279 39.2153C46.0347 40.0523 46.3851 41.0478 46.5933 42.0998C46.8457 43.3841 47.0233 44.6807 46.9963 45.9946C46.9925 46.2363 46.9321 46.4737 46.8199 46.6877C46.7282 46.848 46.5887 46.9755 46.4211 47.0522C46.2535 47.1289 46.0661 47.151 45.8853 47.1154C45.6833 47.0781 45.4982 46.978 45.356 46.8294C45.2138 46.6807 45.1217 46.491 45.0928 46.2871C45.074 46.0417 45.0686 45.7956 45.0768 45.5497C45.0768 44.2752 44.8576 43.029 44.5587 41.7963C44.3896 41.1019 43.9781 40.5414 43.5003 40.0302C42.6622 39.1299 41.6755 38.3815 40.5837 37.8179C39.0836 37.0396 37.5793 36.2669 36.071 35.5C35.7423 35.3387 35.4481 35.1145 35.205 34.84C34.666 34.2255 34.1025 33.6307 33.5599 33.0236C33.4643 32.9216 33.3908 32.7962 33.25 32.6008Z" fill="#1A989D"/>
<path d="M17.8438 6.87751C17.8438 6.41909 18.079 6.06882 18.4563 5.94346C18.6504 5.87462 18.8615 5.87069 19.058 5.93228C19.2546 5.99387 19.4259 6.11766 19.5465 6.28513C19.6125 6.38814 19.6687 6.49719 19.7143 6.61082C20.1063 7.47113 20.7886 7.86318 21.7097 7.86564C23.628 7.86564 25.5463 7.85458 27.467 7.86564C29.0937 7.88039 30.2452 8.67556 30.9556 10.1221C31.0604 10.3431 31.1168 10.5841 31.121 10.8288C31.1308 11.2737 30.8552 11.5773 30.4007 11.7002C30.2208 11.7345 30.0349 11.7176 29.8641 11.6514C29.6933 11.5851 29.5443 11.4722 29.4343 11.3253C29.3709 11.2209 29.3168 11.1111 29.2726 10.9972C28.9161 10.2143 28.3171 9.79519 27.4535 9.79151C25.5561 9.78536 23.6562 9.7915 21.76 9.78167C20.4958 9.77307 19.4019 9.35275 18.5751 8.36093C18.1966 7.92463 17.8769 7.45023 17.8438 6.87751Z" fill="#1A989D"/>
<path d="M30.3836 58.7959C29.8115 58.9274 29.8054 58.9299 29.6205 58.5317C29.3755 57.9946 29.1391 57.4514 28.8953 56.9131C28.8206 56.7484 28.7336 56.5886 28.6368 56.3957C27.8149 56.3957 27.0015 56.3957 26.1869 56.3957C25.9248 56.3957 25.8476 56.5714 25.7619 56.7644C25.4532 57.4514 25.1396 58.1372 24.8138 58.8537L24.2638 58.925C24.2494 58.8338 24.2494 58.7409 24.2638 58.6497C24.5822 57.9205 24.9052 57.1941 25.2327 56.4706C25.7998 55.206 26.3694 53.9426 26.9476 52.6472L27.6054 52.6152C28.5376 54.6738 29.4526 56.7287 30.3836 58.7959ZM28.3882 55.7824L27.2955 53.3502C26.8949 54.2375 26.5605 54.986 26.1992 55.7824H28.3882Z" fill="#1A989D"/>
<path d="M21.5897 57.4748C21.0017 58.6301 19.4852 59.2323 18.1451 58.9066C17.4783 58.7462 16.8789 58.379 16.432 57.8572C15.9852 57.3354 15.7137 56.6855 15.6561 56C15.5336 54.2794 16.7499 53.0934 17.8377 52.7456C19.1569 52.324 20.7077 52.6927 21.5713 54.0041C21.1646 54.1565 20.8756 54.0201 20.5497 53.7583C19.6923 53.0737 18.7209 52.9619 17.7409 53.4424C16.7414 53.934 16.2036 54.7747 16.271 55.9115C16.3347 56.982 16.8834 57.7698 17.8757 58.1827C18.8679 58.5957 19.8049 58.458 20.6122 57.7489C20.905 57.4908 21.1818 57.3814 21.5897 57.4748Z" fill="#1A989D"/>
<path d="M0.877059 57.4232C1.23107 57.3003 1.42339 57.3679 1.61203 57.6862C1.81584 58.0215 2.14287 58.2631 2.52257 58.3587C2.90228 58.4544 3.30425 58.3964 3.64177 58.1974C3.82397 58.1018 3.97611 57.9573 4.08123 57.78C4.18634 57.6027 4.24031 57.3996 4.2371 57.1933C4.24196 56.9973 4.18774 56.8043 4.08153 56.6396C3.97531 56.4749 3.82205 56.3462 3.64177 56.2704C3.38698 56.1475 3.11871 56.0479 2.85413 55.9447C2.60914 55.8488 2.3519 55.7763 2.11182 55.6681C1.03509 55.1851 0.955465 54.4932 1.13186 53.7472C1.31437 52.9766 1.93787 52.5182 2.96928 52.5563C3.77652 52.587 4.28241 53.0319 4.49188 53.8258C4.13174 53.993 3.90146 53.8578 3.68832 53.5493C3.23387 52.893 2.08241 53.0897 1.79577 53.7644C1.59855 54.2302 1.67328 54.6763 2.10323 54.9381C2.37254 55.0792 2.6508 55.2023 2.9362 55.3068C3.32696 55.4764 3.72875 55.6251 4.10235 55.8267C4.95982 56.29 5.26727 57.6284 4.28853 58.4887C3.11626 59.5113 1.0755 58.9226 0.877059 57.4232Z" fill="#1A989D"/>
<path d="M40.8446 53.8381C40.691 53.8874 40.5256 53.8846 40.3737 53.8301C40.2219 53.7757 40.0921 53.6727 40.0043 53.537C39.6895 53.1228 39.1554 53.0393 38.6777 53.242C38.4783 53.3232 38.3099 53.4662 38.197 53.6502C38.0842 53.8341 38.0329 54.0493 38.0505 54.2646C38.054 54.4294 38.1054 54.5897 38.1986 54.7255C38.2918 54.8614 38.4226 54.9669 38.5748 55.029C38.8308 55.1519 39.1101 55.222 39.3722 55.3326C39.7275 55.4838 40.0864 55.63 40.4245 55.8156C41.4596 56.3846 41.3064 57.825 40.7111 58.4137C39.8402 59.274 37.8398 59.2433 37.2886 57.7402C37.2618 57.6322 37.245 57.522 37.2384 57.4109L37.7406 57.3568C37.8215 57.4981 37.8839 57.6247 37.9623 57.7427C38.4339 58.458 39.5119 58.603 40.1746 58.0647C40.645 57.6812 40.8018 56.6993 40.0374 56.3035C39.7495 56.1536 39.4396 56.0466 39.1383 55.9225C38.8322 55.8159 38.5321 55.6928 38.2392 55.5538C37.5997 55.2072 37.2972 54.6136 37.4038 53.9905C37.536 53.2175 38.0028 52.7381 38.7512 52.6017C39.7312 52.4235 40.5029 52.8143 40.8336 53.6673C40.8459 53.7233 40.8496 53.7809 40.8446 53.8381Z" fill="#1A989D"/>
<path d="M11.7203 58.2946C12.7076 58.4396 13.6655 58.2946 14.6393 58.388V58.8722C13.494 58.9448 12.3585 58.8612 11.2352 58.9226C11.0907 58.4802 11.0539 53.515 11.185 52.6547H14.6308C14.6491 52.8046 14.6675 52.957 14.6957 53.1807C13.7157 53.2372 12.7603 53.1807 11.7815 53.2163C11.659 53.8173 11.7387 54.3949 11.7276 55.0291H14.4997V55.5834H11.7276C11.7044 56.5076 11.7129 57.3679 11.7203 58.2946Z" fill="#1A989D"/>
<path d="M6.07697 52.6128C6.99936 52.6644 7.85069 52.5083 8.691 52.7246C9.67096 52.9778 10.1609 53.741 10.0384 54.8139C9.9331 55.818 9.26795 56.4743 8.28922 56.5124C7.78332 56.5333 7.27496 56.5124 6.73476 56.5124C6.50692 57.2744 6.70046 58.0352 6.59879 58.7701C6.15781 58.9274 6.09779 58.9053 6.07329 58.5477C6.05737 58.324 6.07329 58.0979 6.07329 57.873C6.07329 56.3391 6.07329 54.8057 6.07329 53.2728L6.07697 52.6128ZM6.67351 53.2273V55.8746C6.73946 55.9028 6.80855 55.9231 6.8793 55.9348C7.30681 55.9348 7.73677 55.952 8.16183 55.9348C8.91639 55.909 9.39902 55.4432 9.43822 54.7291C9.48477 53.8946 9.09891 53.3281 8.33577 53.2371C7.79557 53.1707 7.24679 53.2224 6.66862 53.2224L6.67351 53.2273Z" fill="#1A989D"/>
<path d="M44.2341 53.204V58.8697H43.6081V53.2224H41.5625L41.5294 52.6484H46.3483V53.204H44.2341Z" fill="#1A989D"/>
<path d="M31.0059 52.6484H31.584V58.313C32.564 58.4027 33.4949 58.313 34.4639 58.3695C34.4823 58.5268 34.4994 58.6792 34.5227 58.8771H31.0083C31.0034 56.8025 31.0083 54.7623 31.0059 52.6484Z" fill="#1A989D"/>
<path d="M22.811 52.6472H23.3352V58.8623H22.811V52.6472Z" fill="#1A989D"/>
<path d="M36.0673 58.9041L35.5663 58.8697V52.6976C35.6117 52.6694 35.6435 52.6349 35.6778 52.6325C35.8003 52.6263 35.9228 52.6325 36.0306 52.6325C36.1408 53.0799 36.169 58.1237 36.0673 58.9041Z" fill="#1A989D"/>
</g>
<defs>
<clipPath id="clip0_13_219">
<rect width="47" height="59" fill="white"/>
</clipPath>
</defs>
</svg>
