<svg width="51" height="50" viewBox="0 0 51 50" fill="none" xmlns="http://www.w3.org/2000/svg">
<g clip-path="url(#clip0_18_398)">
<path d="M50.3598 41.2073L44.2699 32.0691L45.3374 31.7358C45.7767 31.5986 46.0216 31.1313 45.8844 30.6919C45.8788 30.6738 45.8726 30.6559 45.8657 30.6383L43.9932 25.8225L47.8065 22.2767C48.1434 21.9632 48.1623 21.4359 47.8488 21.099C47.8352 21.0845 47.8211 21.0704 47.8065 21.0568L43.9932 17.5118L45.8665 12.696C46.0333 12.2671 45.8208 11.7842 45.3918 11.6173C45.3741 11.6104 45.3562 11.6042 45.3382 11.5985L40.3249 10.0352L39.8866 4.89362C39.8672 4.66477 39.7549 4.45394 39.5758 4.31029C39.3975 4.16707 39.168 4.10394 38.9416 4.13613L33.7242 4.85862L31.0526 0.405342C30.8161 0.0105555 30.3042 -0.117672 29.9095 0.118887C29.8993 0.125033 29.8893 0.131283 29.8793 0.137846L25.5002 3.02031L21.1219 0.137846C20.7377 -0.11538 20.2208 -0.00913173 19.9676 0.375134C19.961 0.38503 19.9548 0.395134 19.9486 0.405342L17.277 4.86029L12.0604 4.1378C11.6045 4.07446 11.1836 4.39269 11.1203 4.84852C11.1182 4.8632 11.1166 4.878 11.1154 4.89279L10.6762 10.0344L5.66712 11.5977C5.22775 11.7349 4.98286 12.2022 5.12004 12.6415C5.12567 12.6597 5.13192 12.6776 5.13879 12.6952L7.01127 17.511L3.19382 21.0568C2.85695 21.3703 2.83799 21.8976 3.15153 22.2344C3.16507 22.249 3.17923 22.2631 3.19382 22.2767L7.0071 25.8217L5.13379 30.6375C4.96702 31.0664 5.17952 31.5493 5.60847 31.7162C5.62618 31.7231 5.6441 31.7293 5.66212 31.735L6.76794 32.0791L0.623849 42.0632C0.382602 42.4551 0.504684 42.9683 0.896658 43.2096C1.07186 43.3174 1.28072 43.3567 1.48301 43.3198L9.84363 41.7998L11.3503 49.3331C11.4163 49.6635 11.6748 49.9216 12.0053 49.9872C12.0586 49.9967 12.1128 50.0009 12.1669 49.9997C12.4455 49.9997 12.7057 49.8607 12.8603 49.6289L18.7069 40.859L19.9477 42.9281C20.0645 43.1231 20.256 43.2619 20.4777 43.3123C20.5397 43.3266 20.6032 43.3336 20.6668 43.3331C20.8297 43.3331 20.9891 43.2853 21.1252 43.1956L25.5001 40.3132L29.8784 43.1956C30.2626 43.4489 30.7795 43.3426 31.0327 42.9584C31.0393 42.9485 31.0456 42.9384 31.0517 42.9281L32.2933 40.8582L38.1399 49.6289C38.2945 49.8607 38.5547 49.9997 38.8333 49.9997C38.8875 49.9998 38.9417 49.9945 38.9949 49.9839C39.3254 49.9183 39.5839 49.6601 39.6499 49.3297L41.1666 41.7307L49.5915 42.4998C50.0498 42.5413 50.455 42.2034 50.4966 41.745C50.5137 41.5555 50.4655 41.3657 50.3598 41.2073ZM12.592 47.0298L11.317 40.6665C11.228 40.2209 10.7984 39.9288 10.3512 40.0098L3.02215 41.3432L8.40958 32.5916L10.6754 33.2983L11.1137 38.4399C11.1331 38.6687 11.2454 38.8796 11.4245 39.0232C11.6031 39.1657 11.8324 39.2287 12.0587 39.1974L17.2761 38.4749L17.7586 39.2799L12.592 47.0298ZM32.5776 37.1474L30.0693 41.329L25.9585 38.619C25.6804 38.4359 25.32 38.4359 25.0419 38.619L20.9303 41.3257L18.422 37.1432C18.2715 36.8922 18.0004 36.7384 17.7078 36.7382C17.6693 36.7381 17.6308 36.7409 17.5928 36.7466L12.7004 37.4232L12.2887 32.5991C12.2598 32.2613 12.0292 31.9746 11.7054 31.8741L7.01127 30.4091L8.76125 25.8992C8.8851 25.5809 8.80218 25.2193 8.55208 24.9867L4.98546 21.6667L8.55625 18.3468C8.80635 18.1142 8.88927 17.7526 8.76541 17.4343L7.01544 12.9227L11.7112 11.4585C12.0351 11.358 12.2657 11.0714 12.2945 10.7335L12.7062 5.90944L17.5986 6.58693C17.9311 6.63443 18.2597 6.47777 18.432 6.18944L20.9403 2.00782L25.0419 4.71446C25.32 4.89758 25.6804 4.89758 25.9585 4.71446L30.0701 2.00782L32.5785 6.19027C32.7514 6.47558 33.077 6.63131 33.4076 6.58693L38.3 5.91027L38.7117 10.7344C38.7406 11.0722 38.9712 11.3589 39.295 11.4594L43.9908 12.9244L42.2358 17.4343C42.112 17.7526 42.1949 18.1142 42.445 18.3468L46.015 21.6667L42.4442 24.9867C42.1941 25.2193 42.1111 25.5809 42.235 25.8992L43.985 30.4108L39.2934 31.8749C38.9695 31.9755 38.7389 32.2621 38.71 32.5999L38.2984 37.424L33.4068 36.7499C33.0758 36.7056 32.7503 36.8618 32.5776 37.1474ZM40.575 39.9998C40.1527 39.9671 39.7715 40.2522 39.6834 40.6665L38.4109 47.0273L33.2443 39.2774L33.7259 38.474L38.9425 39.1965C39.3984 39.2599 39.8193 38.9416 39.8826 38.4858C39.8847 38.4711 39.8863 38.4563 39.8875 38.4415L40.3267 33.2999L42.6142 32.5866L48.0066 40.679L40.575 39.9998Z" fill="#1A989D"/>
<path d="M37.9999 17.5001C37.9999 16.1194 36.8807 15.0002 35.5 15.0002H29.6667V11.6669C29.669 9.36803 27.8073 7.50254 25.5084 7.50024C25.5056 7.50024 25.5029 7.50024 25.5001 7.50024C25.0399 7.50024 24.6668 7.87336 24.6668 8.33357V12.3035L23.1668 15.2968L20.4852 17.4426C20.4581 17.0094 20.1009 16.6708 19.6668 16.6668H13.8336C13.3734 16.6668 13.0003 17.0399 13.0003 17.5001V30C13.0003 30.4602 13.3734 30.8333 13.8336 30.8333H19.6668C20.127 30.8333 20.5002 30.4602 20.5002 30H33C34.3779 29.9931 35.4931 28.8779 35.5 27.5C35.4972 27.0702 35.3823 26.6485 35.1666 26.2767C35.3204 26.1807 35.4625 26.0672 35.59 25.9383C36.398 25.1525 36.567 23.9174 36 22.9434C36.1537 22.8475 36.2958 22.7339 36.4233 22.6051C37.2313 21.8192 37.4004 20.5841 36.8333 19.6101C36.987 19.5142 37.1291 19.4006 37.2566 19.2718C37.735 18.8068 38.0034 18.1671 37.9999 17.5001ZM18.8336 29.1666H14.667V18.3334H18.8336V29.1666ZM36.0783 18.0934C35.9263 18.249 35.7174 18.3356 35.5 18.3334H32.1667V20.0001H34.6667C35.1269 20.0001 35.5 20.3732 35.5 20.8334C35.5007 21.058 35.4084 21.2728 35.245 21.4267C35.093 21.5823 34.884 21.6689 34.6667 21.6667H31.3334V23.3334H33.8333C34.2935 23.3334 34.6667 23.7065 34.6667 24.1667C34.6674 24.3913 34.5751 24.6061 34.4117 24.76C34.2597 24.9156 34.0507 25.0022 33.8333 25H30.5V26.6667H33C33.4602 26.6667 33.8333 27.0398 33.8333 27.5C33.8341 27.7246 33.7418 27.9394 33.5783 28.0933C33.4264 28.2488 33.2174 28.3355 33 28.3333H20.5002V19.5668L24.3543 16.4843C24.4485 16.4088 24.5252 16.3139 24.5793 16.206L26.2459 12.8727C26.3036 12.7569 26.3335 12.6295 26.3334 12.5002V9.30939C27.334 9.66053 28.0028 10.6065 28.0001 11.6669V15.8335C28.0001 16.2937 28.3732 16.6668 28.8334 16.6668H35.5C35.9602 16.6668 36.3333 17.0399 36.3333 17.5001C36.3341 17.7246 36.2417 17.9394 36.0783 18.0934Z" fill="#1A989D"/>
</g>
<defs>
<clipPath id="clip0_18_398">
<rect width="50" height="50" fill="white" transform="translate(0.5)"/>
</clipPath>
</defs>
</svg>
